<?xml version="1.0" standalone="no"?>
<!DOCTYPE svg PUBLIC "-//W3C//DTD SVG 20010904//EN"
 "http://www.w3.org/TR/2001/REC-SVG-20010904/DTD/svg10.dtd">
<svg version="1.0" xmlns="http://www.w3.org/2000/svg"
 width="1950.000000pt" height="2775.000000pt" viewBox="0 0 1950.000000 2775.000000"
 preserveAspectRatio="xMidYMid meet">

<g transform="translate(0.000000,2775.000000) scale(0.100000,-0.100000)"
fill="#000000" stroke="none">
<path d="M0 13875 l0 -13875 9750 0 9750 0 0 13875 0 13875 -9750 0 -9750 0 0
-13875z m7345 12695 c8 -13 250 -13 275 0 17 9 20 5 26 -35 8 -58 2 -64 -26
-26 -18 27 -28 31 -66 31 l-45 0 3 -152 c3 -150 3 -153 26 -156 12 -2 22 -8
22 -13 0 -5 -36 -9 -80 -9 -44 0 -80 4 -80 9 0 5 10 11 23 13 22 3 22 6 25
156 l3 152 -45 0 c-38 0 -48 -5 -70 -32 -14 -18 -27 -30 -30 -28 -7 7 16 100
25 100 4 0 11 -4 14 -10z m3054 -318 c6 -12 21 -22 31 -22 11 0 20 -4 20 -10
0 -6 -32 -10 -75 -10 -43 0 -75 4 -75 10 0 6 7 10 15 10 19 0 19 15 -1 73
l-16 47 -58 0 -58 0 -16 -47 c-21 -61 -20 -73 4 -73 11 0 20 -4 20 -10 0 -6
-27 -10 -60 -10 -33 0 -60 4 -60 10 0 6 9 10 19 10 26 0 26 0 91 174 44 114
62 151 81 162 l24 13 51 -153 c28 -83 56 -162 63 -174z m953 295 c4 -7 8 -25
8 -42 l0 -30 -31 38 c-22 27 -38 37 -59 37 -39 0 -62 -25 -58 -64 3 -27 11
-35 73 -66 97 -49 119 -101 72 -171 -29 -44 -73 -57 -130 -38 -23 7 -48 13
-54 12 -14 -1 -18 53 -7 81 4 12 12 4 28 -27 26 -52 64 -69 104 -46 19 10 28
24 30 47 4 42 -11 60 -73 87 -27 13 -58 31 -67 41 -42 48 -29 125 26 150 35
16 126 10 138 -9z m638 -10 c49 -33 75 -87 74 -157 0 -69 -23 -112 -76 -147
-78 -52 -209 -32 -259 39 -66 93 -29 231 75 279 55 26 134 20 186 -14z m-4080
14 c0 -5 -10 -11 -22 -13 -21 -3 -23 -9 -26 -70 l-3 -68 96 0 95 0 0 65 c0 61
-2 66 -25 75 -14 5 -25 12 -25 15 0 3 34 5 75 5 43 0 75 -4 75 -10 0 -5 -9
-10 -20 -10 -19 0 -20 -7 -20 -155 0 -148 1 -155 20 -155 11 0 20 -4 20 -10 0
-6 -32 -10 -75 -10 -41 0 -75 4 -75 9 0 5 10 11 23 13 20 3 22 9 25 76 l3 72
-96 0 -95 0 0 -71 c0 -62 2 -71 20 -76 43 -11 17 -23 -50 -23 -40 0 -70 4 -70
10 0 6 9 10 20 10 19 0 20 7 20 155 l0 155 -25 0 c-14 0 -25 5 -25 10 0 6 33
10 80 10 44 0 80 -4 80 -9z m630 -17 c6 -14 10 -35 10 -47 0 -19 -4 -17 -35
16 -32 34 -39 37 -90 37 l-55 0 0 -71 0 -70 38 3 c27 2 40 9 47 26 16 37 25
25 25 -33 0 -54 -13 -74 -23 -35 -4 16 -14 20 -47 20 l-41 0 3 -72 3 -73 63
-3 c62 -3 65 -2 98 33 35 38 42 31 23 -24 l-11 -31 -144 0 c-89 0 -144 4 -144
10 0 6 11 10 25 10 l26 0 -3 153 c-3 149 -3 152 -25 155 -13 2 -23 8 -23 13 0
5 58 9 135 9 l135 0 10 -26z m1310 16 c0 -5 -11 -10 -25 -10 l-25 0 0 -155 0
-155 54 0 c70 0 81 5 108 48 26 42 34 30 18 -27 l-11 -41 -139 0 c-87 0 -140
4 -140 10 0 6 11 10 25 10 l25 0 0 151 c0 142 -1 151 -20 156 -44 12 -16 23
55 23 43 0 75 -4 75 -10z m810 0 c0 -5 -7 -10 -15 -10 -20 0 -20 2 24 -130 44
-130 37 -131 87 14 29 85 30 106 4 113 -43 11 -17 23 51 23 44 0 68 -4 64 -10
-3 -5 -13 -10 -21 -10 -8 0 -14 -3 -14 -6 0 -24 75 -233 81 -227 10 11 69 194
69 216 0 9 -7 17 -15 17 -8 0 -15 5 -15 10 0 6 23 10 50 10 28 0 50 -4 50 -10
0 -5 -6 -10 -14 -10 -15 0 -31 -36 -95 -220 -20 -58 -41 -107 -47 -109 -5 -2
-29 54 -54 123 -24 69 -47 126 -51 126 -3 0 -27 -58 -53 -130 -26 -71 -51
-130 -55 -130 -3 0 -22 42 -40 93 -79 215 -93 247 -107 247 -8 0 -14 5 -14 10
0 6 28 10 65 10 37 0 65 -4 65 -10z m1809 -27 c16 -58 14 -60 -27 -20 -34 33
-43 37 -90 37 l-52 0 0 -75 0 -75 35 0 c27 0 37 6 49 27 14 27 14 26 17 -31 4
-64 -2 -78 -19 -41 -9 20 -19 25 -47 25 l-35 0 0 -70 c0 -68 1 -70 26 -70 14
0 23 -4 19 -10 -3 -5 -37 -10 -76 -10 -39 0 -69 4 -69 10 0 6 9 10 20 10 20 0
20 5 18 153 -3 149 -3 152 -25 155 -13 2 -23 8 -23 13 0 5 58 9 135 9 l134 0
10 -37z m-3419 -193 c13 0 20 -7 20 -20 0 -13 -7 -20 -20 -20 -17 0 -20 -7
-20 -40 0 -36 -2 -40 -25 -40 -22 0 -25 4 -25 40 l0 40 -70 0 c-42 0 -70 4
-70 10 0 6 42 66 93 133 l92 122 3 -112 c2 -105 4 -113 22 -113z m311 194 c28
-25 24 -68 -9 -105 l-28 -31 33 -33 c40 -40 42 -73 7 -114 -30 -36 -81 -49
-125 -31 -56 24 -64 72 -19 123 l29 34 -29 28 c-32 31 -37 59 -19 99 24 53
116 70 160 30z m-5889 -446 c51 -51 94 -68 173 -68 62 0 115 24 179 79 l49 43
32 -69 c39 -84 95 -136 167 -153 66 -16 118 -8 195 31 35 18 66 30 69 26 3 -3
12 -34 20 -69 20 -84 57 -136 123 -170 62 -33 151 -38 221 -13 23 8 46 15 50
15 4 0 9 -38 12 -83 5 -98 33 -157 95 -200 58 -39 87 -47 180 -47 84 0 85 0
79 -22 -15 -47 -18 -156 -7 -190 16 -48 75 -114 124 -139 22 -12 67 -25 100
-29 32 -5 62 -11 64 -14 3 -3 -4 -29 -17 -58 -12 -29 -25 -80 -27 -113 -4 -52
-1 -67 24 -115 35 -66 95 -114 169 -136 30 -8 54 -19 54 -23 0 -4 -12 -23 -26
-42 -76 -101 -88 -185 -40 -283 26 -54 53 -79 135 -127 l34 -20 -55 -57 c-73
-74 -88 -106 -88 -184 1 -82 27 -139 91 -200 l50 -47 -70 -45 c-94 -61 -125
-113 -125 -210 -1 -72 18 -124 65 -185 11 -13 19 -27 19 -32 0 -4 -22 -15 -49
-24 -84 -28 -136 -67 -164 -127 -41 -83 -43 -122 -13 -212 15 -42 24 -82 21
-87 -4 -5 -23 -9 -44 -9 -21 0 -62 -8 -90 -17 -66 -21 -132 -91 -151 -158 -12
-44 -9 -149 5 -187 6 -14 -6 -17 -98 -20 -98 -3 -108 -5 -148 -33 -24 -17 -57
-53 -74 -79 -25 -41 -30 -62 -33 -125 -2 -42 -7 -79 -11 -83 -3 -4 -35 2 -70
12 -76 24 -113 25 -173 4 -84 -28 -148 -111 -164 -212 -4 -23 -10 -44 -14 -47
-4 -2 -36 11 -71 30 -84 44 -124 51 -191 31 -77 -22 -131 -68 -169 -143 -18
-34 -35 -63 -38 -63 -4 0 -29 19 -56 41 -65 54 -102 69 -173 69 -83 0 -151
-36 -210 -111 -25 -33 -46 -59 -47 -59 -1 0 -14 17 -27 38 -62 93 -128 132
-223 132 -71 0 -126 -22 -183 -74 -21 -20 -43 -36 -48 -36 -5 0 -24 32 -42 70
-67 144 -203 189 -348 115 -38 -19 -72 -35 -76 -35 -4 0 -12 26 -18 58 -15 70
-39 119 -77 153 -64 61 -147 80 -239 56 -33 -9 -66 -17 -74 -19 -12 -2 -16 14
-21 85 -5 76 -10 94 -35 130 -60 85 -150 123 -262 111 l-64 -7 8 34 c5 19 9
70 9 114 0 74 -2 83 -33 127 -43 62 -104 97 -192 111 -43 6 -70 15 -70 23 0 7
11 36 25 66 66 141 -1 287 -155 338 -36 12 -66 23 -68 25 -2 1 15 31 37 65 62
96 71 142 46 226 -19 64 -64 118 -132 156 l-55 31 55 56 c70 71 90 112 91 181
0 81 -20 127 -86 196 l-59 62 53 30 c96 54 136 108 145 196 7 66 -9 122 -52
186 -19 29 -35 55 -35 60 0 4 26 15 58 24 98 29 148 75 177 165 21 62 16 131
-14 190 -32 62 -29 67 38 74 33 4 78 14 100 23 49 19 115 91 132 141 10 32 9
155 -3 203 -2 12 10 14 78 11 127 -5 200 34 252 134 18 37 26 68 27 118 2 37
5 70 8 73 3 3 37 -5 77 -17 50 -15 83 -19 112 -15 107 17 197 107 214 214 10
66 14 67 88 28 56 -30 78 -36 127 -36 33 0 75 6 94 14 55 23 121 92 146 152
13 30 26 54 29 54 4 0 17 -11 30 -25 126 -134 307 -122 417 28 l37 50 21 -29
c11 -16 41 -50 67 -76z m6768 -1646 c316 -70 510 -286 510 -567 0 -229 -114
-409 -320 -508 -156 -74 -204 -82 -508 -82 l-262 0 0 -355 c1 -195 5 -375 9
-398 14 -72 24 -76 174 -82 l132 -5 3 -55 3 -55 -441 0 -441 0 3 55 3 55 100
2 c134 4 143 7 162 51 14 33 17 138 21 873 4 805 2 926 -18 959 -7 12 -40 16
-147 20 l-138 5 -3 55 -3 55 533 -1 c502 -1 538 -2 628 -22z m-70 -3845 c187
-48 342 -140 481 -284 164 -170 256 -343 306 -573 28 -134 24 -365 -10 -492
-31 -118 -89 -243 -161 -352 -62 -92 -198 -232 -283 -290 -211 -143 -502 -205
-764 -162 -254 41 -492 150 -626 288 -154 157 -246 336 -289 565 -22 120 -15
374 15 483 103 378 378 688 711 800 166 56 440 63 620 17z m-1155 -3938 l0
-54 -60 -3 c-65 -3 -105 -28 -105 -65 0 -11 61 -212 136 -446 74 -234 183
-574 241 -756 58 -181 108 -336 112 -342 7 -13 396 1135 451 1335 31 111 32
114 16 156 -9 23 -32 58 -52 77 -32 31 -41 34 -112 39 l-77 5 -3 55 -3 55 401
0 401 0 -3 -55 -3 -55 -80 -3 c-92 -3 -119 -13 -135 -53 -10 -24 -8 -41 10
-101 66 -220 452 -1454 456 -1457 2 -2 6 -2 9 0 8 9 275 821 341 1039 75 247
124 433 124 472 0 39 -19 74 -47 87 -13 6 -53 11 -88 11 -60 0 -65 2 -71 24
-3 13 -4 38 -2 57 l3 33 320 0 320 -1 3 -48 c4 -58 -4 -65 -80 -65 -50 0 -62
-4 -92 -31 -41 -36 -29 -5 -303 -749 -345 -937 -453 -1224 -473 -1258 -35 -58
-87 -33 -114 55 -13 43 -397 1183 -498 1478 -22 66 -44 126 -47 133 -4 6 -78
-189 -165 -435 -318 -897 -436 -1217 -458 -1240 -26 -27 -49 -29 -70 -5 -13
14 -264 723 -623 1759 -81 234 -84 240 -115 268 -17 16 -41 21 -108 25 l-87 5
-3 55 -3 55 368 -1 368 0 0 -55z m1546 -3831 c9 -17 160 -491 157 -493 -2 0
-15 -9 -30 -18 -15 -9 -33 -14 -40 -11 -7 3 -45 47 -85 97 -113 144 -199 233
-256 265 -98 56 -137 62 -449 69 l-288 6 0 -436 0 -437 48 0 c155 1 365 20
398 36 46 22 77 87 95 197 6 43 15 80 19 82 5 3 28 2 51 -1 l44 -6 3 -297 c1
-163 3 -318 5 -346 l2 -50 -45 -6 c-25 -4 -46 -5 -48 -4 -2 1 -12 40 -23 86
-25 108 -35 131 -68 163 -35 34 -97 43 -316 48 l-160 3 3 -370 c2 -203 8 -388
14 -410 24 -100 86 -146 221 -164 96 -13 326 -14 423 -1 83 11 186 49 243 91
33 23 169 189 266 324 20 28 21 28 53 11 18 -9 35 -23 38 -30 5 -13 -161 -485
-176 -500 -5 -5 -354 -9 -832 -8 l-823 1 0 53 0 53 127 5 c105 4 131 8 145 23
17 17 18 67 18 895 0 705 -3 884 -13 915 -20 55 -51 67 -172 67 l-100 0 0 58
0 57 772 -2 c611 -2 773 -5 779 -15z m-406 -3886 c245 -61 399 -198 451 -403
20 -79 13 -227 -15 -318 -54 -175 -183 -280 -425 -348 -80 -23 -95 -29 -80
-38 11 -5 46 -37 79 -70 62 -62 128 -150 303 -410 153 -226 244 -340 298 -371
35 -21 64 -28 127 -33 l82 -6 0 -54 0 -55 -254 0 -254 -1 -53 75 c-29 41 -97
152 -151 245 -53 94 -136 229 -184 300 -150 227 -219 296 -329 329 -57 17
-176 21 -198 7 -11 -7 -13 -81 -10 -387 3 -361 4 -381 24 -414 l20 -35 120 -5
119 -5 3 -55 3 -55 -411 0 -411 0 3 55 3 55 103 5 c132 6 137 12 147 142 3 51
5 449 3 883 -3 729 -4 792 -20 822 -10 17 -24 35 -30 40 -7 4 -53 10 -103 13
l-90 5 -3 55 -3 55 523 -1 c507 0 526 -1 613 -22z m-426 -3952 c1 -24 0 -24
-20 8 -19 30 -25 32 -75 32 l-55 0 3 -152 c3 -144 4 -153 23 -156 11 -2 24 -8
30 -13 5 -5 -22 -9 -68 -9 -45 0 -77 4 -77 10 0 6 11 10 25 10 l25 0 0 155 0
155 -49 0 c-44 0 -52 -4 -71 -31 -28 -38 -32 -34 -19 16 l10 40 141 -3 c97 -3
144 0 152 8 8 8 13 4 17 -17 4 -15 7 -39 8 -53z m-1848 60 c87 -24 145 -134
120 -228 -23 -85 -114 -141 -207 -127 -91 13 -149 81 -149 175 1 133 108 215
236 180z m2443 -5 c21 -7 44 -11 52 -8 10 3 13 -8 12 -49 0 -45 -2 -50 -12
-33 -6 11 -25 34 -42 52 -28 29 -38 33 -85 33 -48 0 -55 -3 -90 -40 -55 -58
-63 -142 -22 -223 32 -63 149 -91 194 -46 29 29 24 93 -8 97 -49 7 -19 22 43
22 41 0 63 -4 59 -10 -3 -5 -13 -10 -21 -10 -10 0 -14 -14 -14 -53 l0 -54 -42
-14 c-59 -19 -155 -17 -196 4 -68 37 -105 133 -82 217 27 100 146 154 254 115z
m-2881 -18 c56 -36 42 -126 -23 -149 l-30 -10 29 -36 c15 -21 40 -54 55 -74
15 -22 35 -38 47 -38 10 0 19 -4 19 -10 0 -5 -19 -10 -42 -10 -42 0 -44 2 -83
62 -52 81 -69 98 -100 98 -26 0 -26 -1 -23 -67 3 -62 5 -68 26 -71 48 -7 19
-22 -43 -22 -37 0 -65 4 -65 10 0 6 9 10 20 10 19 0 20 7 20 155 0 148 -1 155
-20 155 -11 0 -20 5 -20 11 0 19 201 7 233 -14z m916 -1 c31 -28 28 -83 -6
-118 -20 -21 -23 -28 -11 -28 21 0 68 -56 68 -81 0 -40 -29 -78 -68 -88 -48
-14 -212 -14 -212 -1 0 6 11 10 25 10 l25 0 0 155 0 155 -25 0 c-14 0 -25 5
-25 11 0 8 32 10 104 7 85 -3 108 -7 125 -22z m467 -18 c16 -46 7 -48 -30 -9
-24 25 -37 30 -87 33 l-59 3 0 -73 0 -73 38 3 c27 2 40 9 47 26 16 37 25 25
25 -33 0 -30 -4 -55 -10 -55 -5 0 -10 7 -10 15 0 16 -38 35 -71 35 -18 0 -20
-6 -17 -77 l3 -78 66 -3 c65 -3 67 -2 98 34 18 20 34 34 37 31 3 -2 -3 -23
-12 -46 l-16 -41 -134 0 c-83 0 -134 4 -134 10 0 6 11 10 25 10 l25 0 0 139
c0 153 -3 171 -31 171 -10 0 -19 5 -19 10 0 7 45 10 127 8 l126 -3 13 -37z
m365 32 c86 -24 91 -127 10 -163 l-28 -12 54 -72 c35 -47 61 -73 73 -73 11 0
20 -4 20 -10 0 -5 -19 -10 -43 -10 -41 0 -44 2 -76 55 -46 76 -75 105 -106
105 -26 0 -26 -1 -23 -67 3 -62 5 -68 26 -71 48 -7 19 -22 -43 -22 -37 0 -65
4 -65 10 0 6 9 10 20 10 19 0 20 7 20 155 0 148 -1 155 -20 155 -11 0 -20 5
-20 10 0 13 154 13 201 0z m1602 -13 c56 -36 42 -126 -23 -149 l-30 -10 29
-36 c15 -21 40 -54 55 -74 15 -22 35 -38 47 -38 10 0 19 -4 19 -10 0 -5 -19
-9 -43 -8 -41 0 -45 3 -83 62 -51 79 -68 96 -99 96 -26 0 -26 -1 -23 -67 3
-62 5 -68 26 -71 48 -7 19 -22 -43 -22 -37 0 -65 4 -65 10 0 6 9 10 20 10 19
0 20 7 20 155 0 148 -1 155 -20 155 -11 0 -20 5 -20 11 0 19 201 7 233 -14z
m473 -19 c16 -46 7 -48 -30 -9 -24 25 -37 30 -87 33 l-59 3 0 -72 0 -73 40 0
c34 0 41 4 46 25 11 43 24 27 24 -30 0 -30 -4 -55 -10 -55 -5 0 -10 7 -10 15
0 18 -31 35 -65 35 l-26 0 3 -77 3 -78 66 -3 c65 -3 67 -2 98 34 18 20 34 34
37 31 3 -2 -3 -23 -12 -46 l-16 -41 -134 0 c-76 0 -134 4 -134 9 0 5 10 11 23
13 21 3 22 7 25 133 3 151 -1 175 -28 175 -11 0 -20 5 -20 10 0 7 45 10 127 8
l126 -3 13 -37z m430 0 c16 -46 7 -48 -30 -9 -24 25 -37 30 -87 33 l-59 3 0
-72 0 -73 40 0 c34 0 41 4 46 25 11 43 24 27 24 -30 0 -30 -4 -55 -10 -55 -5
0 -10 7 -10 15 0 18 -31 35 -65 35 l-26 0 3 -77 3 -78 66 -3 c65 -3 67 -2 98
34 18 20 34 34 37 31 3 -2 -3 -23 -12 -46 l-16 -41 -134 0 c-83 0 -134 4 -134
10 0 6 11 10 25 10 l25 0 0 139 c0 153 -3 171 -31 171 -10 0 -19 5 -19 10 0 7
45 10 127 8 l126 -3 13 -37z m345 -92 l104 -134 3 101 c3 122 -1 147 -28 147
-11 0 -20 5 -20 10 0 6 23 10 50 10 28 0 50 -4 50 -10 0 -5 -7 -10 -15 -10
-13 0 -15 -25 -15 -166 0 -91 -4 -164 -8 -162 -5 2 -57 64 -117 138 -59 74
-112 139 -116 145 -5 5 -9 -48 -9 -124 0 -124 1 -133 20 -138 37 -10 20 -23
-30 -23 -50 0 -67 13 -30 23 19 5 20 14 20 140 0 149 -3 167 -30 167 -11 0
-22 5 -25 10 -4 6 13 10 43 10 l48 0 105 -134z m565 92 c16 -46 7 -48 -30 -9
-24 25 -37 30 -87 33 l-59 3 0 -73 0 -73 38 3 c27 2 40 9 47 26 16 37 25 25
25 -33 0 -30 -4 -55 -10 -55 -5 0 -10 7 -10 15 0 18 -31 35 -65 35 l-26 0 3
-77 3 -78 66 -3 c70 -3 79 1 114 50 22 33 28 16 9 -31 l-16 -41 -134 0 c-83 0
-134 4 -134 10 0 6 11 10 25 10 l25 0 0 139 c0 153 -3 171 -31 171 -10 0 -19
5 -19 10 0 7 45 10 127 8 l126 -3 13 -37z m-2761 -2601 c67 -17 136 -60 113
-71 -7 -3 -4 -4 7 -1 15 4 30 -7 58 -39 20 -25 37 -48 37 -51 0 -3 9 -18 21
-34 11 -15 22 -34 23 -42 2 -8 6 -22 10 -31 4 -9 8 -22 10 -30 1 -7 5 -19 10
-26 4 -7 9 -30 10 -50 1 -20 5 -43 9 -49 15 -24 20 -285 8 -378 -15 -108 -40
-215 -52 -215 -5 0 -6 -6 -3 -14 3 -8 0 -17 -7 -22 -8 -5 -10 -3 -4 6 5 8 4
11 -3 6 -6 -4 -9 -13 -6 -21 7 -16 -32 -85 -47 -85 -6 0 -8 -4 -5 -9 6 -9 -90
-102 -102 -99 -4 2 -19 -6 -34 -15 -14 -10 -47 -20 -71 -21 -24 -2 -49 -6 -55
-10 -13 -8 -103 5 -97 14 2 4 -9 6 -25 4 -17 -2 -30 1 -30 6 0 6 -3 9 -7 8 -5
-2 -23 3 -41 11 -21 9 -31 19 -28 28 4 8 1 11 -5 8 -6 -4 -19 1 -30 11 -16 14
-17 20 -6 33 10 14 10 14 -4 3 -13 -10 -19 -10 -29 2 -13 17 -4 40 12 30 7 -4
8 -2 4 5 -6 9 -11 9 -22 0 -11 -9 -15 -7 -21 7 -3 11 -15 32 -26 47 -10 16
-17 31 -14 34 4 3 -1 12 -9 20 -8 9 -13 22 -10 29 3 8 2 14 -3 14 -7 0 -38
137 -40 180 -9 156 -10 320 -2 316 5 -4 13 -1 17 5 4 8 3 9 -4 5 -8 -5 -12 3
-12 26 1 50 24 140 34 131 5 -4 6 -2 2 5 -14 23 52 170 69 154 5 -4 5 -1 0 7
-5 9 -2 18 7 25 8 6 20 21 27 34 7 12 16 20 22 17 5 -4 9 -1 9 5 0 7 7 10 14
7 11 -4 13 -1 9 10 -5 13 -2 15 11 10 10 -4 15 -3 11 3 -3 6 1 10 9 10 9 0 16
4 16 9 0 7 31 18 105 35 23 5 130 1 160 -7z"/>
<path d="M10222 26468 c-39 -105 -40 -98 17 -98 28 0 51 3 51 6 0 13 -41 144
-45 144 -2 0 -12 -24 -23 -52z"/>
<path d="M11819 26531 c-83 -65 -75 -237 13 -291 88 -53 173 15 172 140 -1 90
-50 157 -121 167 -29 4 -44 0 -64 -16z"/>
<path d="M8927 26400 l-48 -65 47 -3 c25 -2 48 -1 51 1 2 3 3 33 1 68 l-3 63
-48 -64z"/>
<path d="M9257 26512 c-24 -26 -21 -65 6 -90 29 -28 42 -28 61 0 45 63 -17
145 -67 90z"/>
<path d="M9247 26332 c-38 -42 -10 -112 44 -112 53 0 67 63 24 105 -29 30 -46
31 -68 7z"/>
<path d="M3110 25844 c-907 -120 -1625 -855 -1730 -1769 -48 -421 51 -883 266
-1243 491 -824 1480 -1190 2379 -882 675 231 1171 799 1320 1510 32 153 45
455 26 615 -57 482 -265 897 -619 1237 -429 410 -1048 611 -1642 532z m490
-104 c566 -70 1065 -384 1374 -862 359 -557 399 -1270 106 -1863 -466 -943
-1597 -1332 -2535 -871 -393 193 -690 494 -880 890 -75 155 -116 275 -152 446
-25 115 -27 143 -28 365 0 256 6 310 61 515 124 460 443 875 869 1131 187 112
465 211 670 239 50 6 97 13 105 15 40 8 335 4 410 -5z"/>
<path d="M3110 25225 c0 -13 35 -15 255 -15 220 0 255 2 255 15 0 13 -35 15
-255 15 -220 0 -255 -2 -255 -15z"/>
<path d="M2741 24438 c-15 -43 -21 -78 -13 -78 4 0 18 14 30 30 18 23 30 30
57 30 l35 0 0 -140 c0 -133 -1 -140 -20 -140 -11 0 -20 -4 -20 -10 0 -6 30
-10 70 -10 67 0 93 12 50 23 -19 5 -20 14 -20 141 l0 136 34 0 c34 0 56 -14
75 -48 15 -27 22 -9 15 42 -6 38 -10 46 -23 40 -28 -13 -217 -17 -240 -4 -18
9 -22 8 -30 -12z"/>
<path d="M1990 24430 c0 -5 7 -10 15 -10 25 0 35 -36 35 -128 0 -107 -8 -152
-26 -152 -8 0 -14 -4 -14 -10 0 -5 23 -10 50 -10 28 0 50 5 50 10 0 6 -6 10
-14 10 -21 0 -26 23 -26 133 l1 102 20 -28 c68 -91 182 -227 190 -227 5 0 9
40 9 89 0 130 10 211 26 211 8 0 14 5 14 10 0 6 -25 10 -56 10 -34 0 -53 -4
-49 -10 3 -5 13 -10 20 -10 20 0 26 -33 23 -124 l-3 -79 -84 111 -85 112 -48
0 c-26 0 -48 -4 -48 -10z"/>
<path d="M2513 24428 c-13 -6 -23 -20 -24 -32 0 -12 -19 -70 -43 -131 -30 -78
-49 -113 -64 -120 -36 -16 -25 -25 33 -25 30 0 55 5 55 10 0 6 -9 10 -20 10
-24 0 -24 -4 -4 53 l16 47 48 0 c45 0 49 -2 59 -31 14 -40 14 -69 1 -69 -5 0
-10 -4 -10 -10 0 -6 28 -10 65 -10 37 0 65 4 65 10 0 6 -7 10 -16 10 -19 0
-43 54 -85 193 -18 59 -38 107 -44 106 -5 0 -20 -5 -32 -11z m31 -140 c6 -27
5 -28 -34 -28 -22 0 -40 2 -40 5 0 2 10 30 22 62 l21 58 12 -35 c7 -19 15 -47
19 -62z"/>
<path d="M3090 24430 c0 -5 9 -10 20 -10 19 0 20 -7 20 -140 0 -133 -1 -140
-20 -140 -11 0 -20 -4 -20 -10 0 -6 30 -10 70 -10 40 0 70 4 70 10 0 6 -9 10
-20 10 -19 0 -20 7 -20 140 0 133 1 140 20 140 11 0 20 5 20 10 0 6 -30 10
-70 10 -40 0 -70 -4 -70 -10z"/>
<path d="M3380 24418 c-52 -36 -73 -71 -77 -130 -6 -70 19 -115 77 -145 124
-64 260 18 248 149 -9 88 -75 148 -163 148 -38 0 -61 -6 -85 -22z m126 -17
c90 -55 81 -228 -14 -255 -105 -30 -175 155 -92 244 32 35 62 38 106 11z"/>
<path d="M3700 24430 c0 -5 7 -10 15 -10 26 0 36 -39 35 -138 -2 -114 -7 -142
-26 -142 -8 0 -14 -4 -14 -10 0 -5 23 -10 50 -10 28 0 50 5 50 10 0 6 -6 10
-14 10 -21 0 -26 23 -26 133 l1 102 20 -28 c68 -91 182 -227 190 -227 5 0 9
44 9 98 0 132 9 202 26 202 8 0 14 5 14 10 0 6 -22 10 -50 10 -50 0 -67 -13
-30 -23 18 -5 20 -13 20 -104 0 -95 -1 -97 -18 -76 -9 12 -48 62 -86 112 l-70
91 -48 0 c-26 0 -48 -4 -48 -10z"/>
<path d="M4213 24428 c-13 -6 -23 -18 -23 -27 0 -9 -19 -68 -43 -131 -31 -83
-49 -118 -65 -125 -36 -16 -25 -25 33 -25 30 0 55 5 55 10 0 6 -9 10 -20 10
-24 0 -24 -4 -4 53 l16 47 48 0 c45 0 49 -2 59 -31 14 -40 14 -69 1 -69 -5 0
-10 -4 -10 -10 0 -6 28 -10 65 -10 37 0 65 4 65 10 0 6 -7 10 -16 10 -19 0
-42 51 -85 193 -18 59 -38 107 -44 106 -5 0 -20 -5 -32 -11z m31 -140 c6 -27
5 -28 -34 -28 -22 0 -40 2 -40 4 0 2 10 30 22 61 l22 58 11 -34 c7 -19 15 -46
19 -61z"/>
<path d="M4450 24430 c0 -5 7 -10 15 -10 13 0 15 -22 15 -140 0 -133 -1 -140
-20 -140 -11 0 -20 -5 -20 -10 0 -7 45 -10 127 -8 l127 3 8 33 c16 59 5 69
-25 24 -27 -41 -29 -42 -82 -42 l-56 0 3 138 c3 134 4 137 26 140 50 7 18 22
-48 22 -40 0 -70 -4 -70 -10z"/>
<path d="M2707 23703 c-12 -19 -25 -83 -18 -88 4 -2 18 9 30 25 17 23 29 30
56 30 l35 0 0 -140 c0 -133 -1 -140 -20 -140 -11 0 -20 -4 -20 -10 0 -6 32
-10 75 -10 41 0 75 2 75 5 0 3 -11 10 -25 15 -25 9 -25 10 -25 145 l0 135 34
0 c34 0 56 -14 75 -48 16 -28 23 -7 16 43 -6 38 -10 45 -24 39 -28 -13 -217
-17 -239 -5 -12 6 -23 8 -25 4z"/>
<path d="M1760 23680 c0 -5 8 -10 19 -10 25 0 31 -26 31 -140 0 -108 -6 -140
-26 -140 -8 0 -14 -4 -14 -10 0 -6 40 -10 100 -10 94 0 103 2 125 25 36 35 34
86 -5 119 l-30 25 26 26 c21 21 25 32 20 58 -11 56 -35 67 -147 67 -59 0 -99
-4 -99 -10z m174 -32 c9 -12 16 -30 16 -39 0 -25 -31 -57 -62 -65 l-28 -6 0
66 0 66 29 0 c20 0 35 -8 45 -22z m9 -149 c35 -43 9 -109 -42 -109 -35 0 -41
14 -41 87 l0 56 33 -7 c17 -3 40 -16 50 -27z"/>
<path d="M2100 23681 c0 -5 9 -11 20 -14 19 -5 20 -14 20 -141 0 -129 -1 -136
-20 -136 -11 0 -20 -5 -20 -10 0 -7 45 -10 127 -8 l127 3 10 33 c13 45 4 48
-33 12 -27 -27 -36 -31 -78 -28 l-48 3 -3 63 -3 62 30 0 c21 0 32 -6 36 -20
12 -38 25 -20 25 35 0 59 -10 70 -28 30 -8 -17 -20 -25 -37 -25 -24 0 -25 2
-25 65 l0 65 40 0 c29 0 48 -7 73 -30 19 -16 37 -30 40 -30 3 0 0 18 -5 40
l-10 40 -119 0 c-66 0 -119 -4 -119 -9z"/>
<path d="M2468 23660 c-25 -26 -29 -36 -24 -62 8 -43 29 -63 93 -92 50 -23 53
-27 53 -61 0 -73 -85 -71 -117 3 -16 36 -16 37 -24 12 -15 -51 -10 -75 14 -77
12 -2 43 -5 69 -9 43 -5 50 -3 78 24 21 22 30 40 30 64 0 47 -24 77 -87 104
-60 27 -71 43 -54 80 17 37 68 30 97 -13 26 -39 31 -36 26 15 l-4 39 -59 2
c-55 1 -63 -1 -91 -29z"/>
<path d="M3094 23667 c-21 -18 -28 -33 -28 -60 0 -44 15 -62 78 -94 59 -29 66
-38 66 -76 0 -20 -7 -31 -25 -39 -36 -16 -72 3 -92 50 -14 33 -17 35 -24 17
-4 -11 -8 -33 -8 -50 -1 -24 4 -30 22 -32 12 -2 43 -5 69 -9 43 -5 50 -3 78
24 23 24 30 39 30 69 0 47 -22 71 -92 101 -50 22 -66 49 -48 82 18 33 69 24
96 -17 26 -39 31 -36 26 15 l-4 39 -58 2 c-49 1 -63 -2 -86 -22z"/>
<path d="M3340 23681 c0 -5 9 -11 20 -14 19 -5 20 -14 20 -141 0 -129 -1 -136
-20 -136 -11 0 -20 -5 -20 -10 0 -7 45 -10 127 -8 l127 3 10 33 c13 45 4 48
-33 12 -27 -27 -36 -31 -78 -28 l-48 3 -3 63 -3 62 30 0 c21 0 32 -6 36 -20
12 -38 25 -20 25 35 0 59 -10 70 -28 30 -8 -17 -20 -25 -37 -25 -24 0 -25 2
-25 65 l0 65 40 0 c30 0 48 -7 75 -31 20 -18 38 -30 40 -27 2 2 -1 21 -7 41
l-11 37 -119 0 c-65 0 -118 -4 -118 -9z"/>
<path d="M3665 23680 c3 -5 13 -10 21 -10 11 0 14 -25 14 -140 0 -133 -1 -140
-20 -140 -11 0 -20 -5 -20 -10 0 -7 45 -10 127 -8 l127 3 8 33 c15 57 5 68
-22 26 -24 -37 -28 -39 -83 -42 l-57 -3 0 125 c0 138 4 156 31 156 10 0 19 5
19 10 0 6 -32 10 -76 10 -47 0 -73 -4 -69 -10z"/>
<path d="M4000 23680 c0 -5 7 -10 15 -10 13 0 15 -22 15 -140 0 -133 -1 -140
-20 -140 -11 0 -20 -5 -20 -10 0 -7 45 -10 127 -8 l127 3 8 33 c15 57 5 68
-22 26 -24 -37 -28 -39 -83 -42 l-58 -3 3 138 c3 135 4 138 26 141 50 7 18 22
-48 22 -40 0 -70 -4 -70 -10z"/>
<path d="M4330 23681 c0 -5 9 -11 20 -14 19 -5 20 -14 20 -141 0 -129 -1 -136
-20 -136 -11 0 -20 -4 -20 -10 0 -6 48 -10 125 -10 125 0 125 0 135 26 20 50
12 58 -26 25 -31 -28 -42 -32 -82 -29 l-47 3 -3 63 -3 62 30 0 c21 0 32 -6 36
-20 12 -38 25 -20 25 35 0 59 -10 70 -28 30 -8 -17 -20 -25 -37 -25 -24 0 -25
2 -25 65 l0 65 40 0 c29 0 48 -7 73 -30 19 -16 37 -30 40 -30 3 0 0 18 -5 40
l-10 40 -119 0 c-66 0 -119 -4 -119 -9z"/>
<path d="M4660 23680 c0 -5 7 -10 15 -10 13 0 15 -22 15 -140 0 -118 -2 -140
-15 -140 -8 0 -15 -4 -15 -10 0 -6 28 -10 65 -10 37 0 65 4 65 10 0 6 -9 10
-20 10 -18 0 -20 7 -20 60 0 47 3 60 15 60 15 0 54 -50 87 -109 15 -28 22 -31
63 -31 45 0 61 13 26 23 -10 2 -37 32 -60 65 -38 57 -40 61 -21 67 23 7 50 54
50 85 0 12 -13 35 -29 51 -28 28 -33 29 -125 29 -57 0 -96 -4 -96 -10z m163
-22 c9 -7 19 -27 23 -44 7 -37 -27 -83 -66 -86 -24 -3 -25 -1 -28 70 l-3 72
29 0 c15 0 36 -6 45 -12z"/>
<path d="M3110 22560 c0 -19 7 -20 250 -20 243 0 250 1 250 20 0 19 -7 20
-250 20 -243 0 -250 -1 -250 -20z"/>
<path d="M9690 24351 l-25 -7 -3 -481 -2 -480 37 -7 c21 -4 94 -9 163 -12 97
-5 141 -3 194 10 138 33 284 135 335 234 69 136 66 360 -7 496 -59 110 -196
206 -342 240 -67 16 -301 21 -350 7z"/>
<path d="M9716 20498 c-146 -28 -319 -154 -425 -311 -53 -79 -120 -229 -148
-334 -23 -87 -26 -118 -27 -268 0 -194 14 -289 69 -441 91 -254 260 -444 488
-549 100 -45 167 -60 272 -58 106 2 219 29 313 75 101 49 232 185 294 303 89
172 130 351 129 565 0 206 -40 373 -129 543 -181 345 -518 536 -836 475z"/>
<path d="M9589 8846 c-48 -28 -49 -40 -47 -511 l3 -440 60 -6 c146 -15 354 24
460 87 194 113 296 342 239 535 -34 115 -83 182 -178 248 -97 67 -194 93 -366
98 -115 3 -150 0 -171 -11z"/>
<path d="M7751 5014 c-58 -41 -77 -154 -40 -232 53 -108 191 -111 235 -6 33
80 4 194 -60 234 -40 24 -103 26 -135 4z"/>
<path d="M7303 5023 c-9 -3 -13 -29 -13 -79 0 -85 6 -91 69 -74 99 26 92 137
-9 153 -19 3 -41 3 -47 0z"/>
<path d="M8225 5017 c-4 -8 -5 -41 -3 -73 l3 -59 38 1 c48 2 77 28 77 69 0 39
-23 61 -72 70 -29 6 -39 4 -43 -8z"/>
<path d="M8220 4805 c0 -52 4 -69 20 -85 23 -23 27 -24 69 -9 36 13 51 35 51
76 -1 50 -42 83 -104 83 l-36 0 0 -65z"/>
<path d="M9083 5023 c-9 -3 -13 -29 -13 -79 0 -85 6 -91 69 -74 99 26 92 137
-9 153 -19 3 -41 3 -47 0z"/>
<path d="M10652 5018 c-7 -7 -12 -40 -12 -80 0 -79 6 -85 69 -68 99 26 93 136
-9 154 -23 4 -40 2 -48 -6z"/>
<path d="M9538 2286 c4 -13 26 -38 49 -55 53 -39 78 -88 68 -138 -9 -48 -23
-75 -36 -68 -5 4 -9 3 -8 -2 3 -13 -12 -45 -51 -103 -21 -30 -45 -69 -55 -87
-10 -18 -23 -29 -28 -26 -6 3 -7 1 -4 -4 4 -6 1 -29 -7 -51 -38 -106 -29 -206
20 -229 15 -7 24 -10 20 -6 -3 3 0 13 7 21 10 13 9 14 -1 8 -18 -11 -9 99 13
144 l16 35 -5 -35 c-10 -68 -8 -216 4 -264 11 -40 11 -49 -1 -57 -12 -7 -12
-10 0 -21 9 -8 11 -9 7 -1 -13 23 15 24 39 1 30 -28 31 -34 4 -49 -12 -6 -19
-7 -16 -2 3 5 -3 9 -13 9 -15 0 -17 -3 -7 -15 10 -12 8 -13 -11 -9 -18 5 -21
4 -13 -6 6 -7 8 -16 4 -19 -3 -4 2 -7 13 -7 11 0 26 -8 33 -19 13 -17 15 -17
32 -2 11 9 36 18 57 21 38 5 48 22 29 48 -6 7 -7 16 -3 19 4 4 11 1 16 -7 9
-13 14 -7 11 12 0 4 7 7 17 6 9 0 33 3 52 6 25 5 41 2 55 -10 20 -16 20 -16
-2 -31 -13 -9 -23 -23 -23 -33 0 -14 7 -17 31 -14 25 3 30 1 25 -12 -3 -8 -2
-12 3 -9 5 3 12 1 16 -5 4 -6 13 -7 23 -1 9 4 24 6 32 4 13 -4 13 -3 0 6 -8 5
-18 7 -24 4 -5 -3 -6 -1 -2 5 3 6 20 10 36 10 26 -1 28 -3 17 -17 -10 -14 -10
-14 4 -3 17 13 15 52 -2 52 -5 0 -9 7 -9 16 0 8 5 12 10 9 6 -3 10 -1 10 4 0
14 -13 14 -28 -1 -23 -23 -26 23 -3 66 12 22 19 32 16 21 -3 -11 -2 -16 2 -11
23 22 19 203 -6 285 -6 19 -8 37 -6 42 3 4 1 10 -5 14 -5 3 -10 11 -10 18 0 6
7 1 16 -11 8 -12 12 -27 9 -32 -3 -6 -2 -10 2 -10 9 0 35 -61 38 -90 4 -33 18
-50 40 -50 22 0 23 3 21 73 -4 88 -30 175 -73 244 -18 29 -33 59 -33 68 0 9
-4 14 -9 11 -4 -3 -20 17 -35 45 -23 40 -25 53 -15 65 10 12 9 13 -6 8 -13 -5
-16 -4 -11 4 4 7 3 12 -2 12 -4 0 -13 36 -19 81 -8 58 -17 87 -32 103 -12 12
-18 26 -14 31 5 4 0 5 -9 2 -10 -4 -18 -3 -18 1 0 10 -63 6 -121 -7 -47 -11
-115 -5 -136 11 -9 7 -10 3 -5 -16z m243 -26 c22 -13 25 -52 5 -70 -8 -6 -25
-10 -38 -8 -30 4 -38 56 -12 75 21 16 20 16 45 3z m53 -76 c10 -26 -5 -84 -23
-94 -10 -5 -41 -12 -69 -16 -44 -6 -51 -4 -47 8 3 8 23 24 43 34 20 11 46 34
57 52 23 36 30 39 39 16z m-21 -155 c42 -19 58 -62 68 -182 5 -62 18 -146 28
-187 29 -109 35 -170 22 -217 -13 -49 -32 -58 -112 -54 -31 1 -74 -2 -96 -8
-57 -15 -97 0 -118 46 -14 28 -18 64 -18 152 0 118 9 176 45 315 33 124 98
173 181 135z"/>
<path d="M9750 2215 c0 -8 7 -15 15 -15 8 0 15 7 15 15 0 8 -7 15 -15 15 -8 0
-15 -7 -15 -15z"/>
<path d="M9500 2290 c-9 -6 -10 -10 -3 -10 6 0 15 5 18 10 8 12 4 12 -15 0z"/>
<path d="M9867 2250 c10 -11 19 -20 21 -20 1 0 -2 9 -8 20 -6 11 -15 20 -20
20 -6 0 -2 -9 7 -20z"/>
<path d="M9603 2195 c0 -8 4 -12 9 -9 5 3 6 10 3 15 -9 13 -12 11 -12 -6z"/>
<path d="M9955 1981 c-3 -5 -2 -12 3 -15 5 -3 9 1 9 9 0 17 -3 19 -12 6z"/>
<path d="M10016 1898 c3 -5 10 -6 15 -3 13 9 11 12 -6 12 -8 0 -12 -4 -9 -9z"/>
<path d="M9485 1890 c3 -5 8 -10 11 -10 2 0 4 5 4 10 0 6 -5 10 -11 10 -5 0
-7 -4 -4 -10z"/>
<path d="M9509 1873 c-13 -16 -12 -17 4 -4 16 13 21 21 13 21 -2 0 -10 -8 -17
-17z"/>
<path d="M9459 1823 c-13 -16 -12 -17 4 -4 16 13 21 21 13 21 -2 0 -10 -8 -17
-17z"/>
<path d="M10003 1555 c0 -8 4 -12 9 -9 5 3 6 10 3 15 -9 13 -12 11 -12 -6z"/>
<path d="M10017 1519 c7 -7 15 -10 18 -7 3 3 -2 9 -12 12 -14 6 -15 5 -6 -5z"/>
<path d="M9370 1472 c0 -12 19 -26 26 -19 2 2 -2 10 -11 17 -9 8 -15 8 -15 2z"/>
<path d="M9767 1299 c4 -13 8 -18 11 -10 2 7 -1 18 -6 23 -8 8 -9 4 -5 -13z"/>
<path d="M9870 1170 c-12 -8 -10 -10 8 -10 13 0 20 4 17 10 -7 12 -6 12 -25 0z"/>
<path d="M9575 1160 c-13 -6 -15 -9 -5 -9 8 0 22 4 30 9 18 12 2 12 -25 0z"/>
<path d="M9660 1140 c-9 -6 -10 -10 -3 -10 6 0 15 5 18 10 8 12 4 12 -15 0z"/>
</g>
</svg>
