<?xml version="1.0" standalone="no"?>
<!DOCTYPE svg PUBLIC "-//W3C//DTD SVG 20010904//EN"
 "http://www.w3.org/TR/2001/REC-SVG-20010904/DTD/svg10.dtd">
<svg version="1.0" xmlns="http://www.w3.org/2000/svg"
 width="1593.000000pt" height="2400.000000pt" viewBox="0 0 1593.000000 2400.000000"
 preserveAspectRatio="xMidYMid meet">

<g transform="translate(0.000000,2400.000000) scale(0.100000,-0.100000)"
fill="#000000" stroke="none">
<path d="M4230 18950 c-41 -5 -129 -14 -195 -20 -279 -27 -567 -74 -805 -132
-290 -70 -598 -192 -654 -258 -32 -39 -32 -47 -1 -62 19 -9 43 -7 107 6 192
40 692 75 1198 83 379 6 527 0 745 -32 534 -76 1085 -162 1365 -211 323 -58
457 -52 559 24 18 13 42 43 52 66 46 102 1 213 -114 280 -76 45 -556 158 -852
200 -342 50 -469 58 -905 61 -234 2 -459 -1 -500 -5z"/>
<path d="M10765 18945 c-420 -39 -745 -94 -1113 -191 -151 -39 -176 -50 -234
-102 -128 -115 -94 -282 71 -346 96 -37 167 -33 561 33 354 58 430 70 930 145
514 76 530 78 830 83 463 9 1212 -32 1436 -78 106 -21 148 -20 157 5 14 35
-65 96 -194 149 -345 143 -766 236 -1324 293 -220 23 -911 28 -1120 9z"/>
<path d="M13554 17698 c-93 -95 -163 -153 -213 -175 -186 -81 -512 -93 -751
-29 -508 137 -647 162 -965 172 -440 14 -822 -79 -1167 -286 -169 -100 -358
-261 -481 -408 -39 -48 -75 -89 -78 -92 -38 -32 -209 -324 -197 -336 3 -2 29
28 59 66 l54 70 24 -33 c57 -75 168 -173 231 -204 176 -88 391 -84 558 9 82
46 194 162 236 246 54 108 69 178 63 307 -5 121 -26 195 -77 277 -16 26 -25
50 -20 53 19 12 207 44 324 56 153 15 578 6 736 -16 161 -22 356 -73 460 -119
146 -64 158 -142 44 -296 -214 -291 -657 -554 -1119 -665 -244 -59 -487 -73
-920 -53 -140 6 -147 6 -105 -8 61 -20 317 -60 473 -75 175 -16 492 -6 667 21
472 72 896 263 1254 561 99 83 316 306 316 325 0 7 -28 13 -72 17 -39 3 -76
11 -82 17 -7 7 -4 10 11 10 67 0 284 97 457 204 89 56 105 70 175 163 78 104
197 291 189 298 -2 3 -40 -32 -84 -77z"/>
<path d="M2330 17661 c0 -14 163 -194 206 -227 99 -77 415 -244 554 -294 36
-13 69 -26 73 -30 12 -10 -73 -30 -128 -30 -26 0 -45 -4 -43 -10 8 -24 237
-257 326 -331 183 -153 441 -309 650 -393 325 -130 582 -182 957 -193 232 -6
406 8 654 53 186 34 195 45 31 36 -74 -4 -238 -7 -365 -7 -253 1 -369 14 -580
65 -129 32 -357 111 -362 126 -1 5 16 18 40 29 68 32 189 159 230 241 53 106
70 175 69 284 -1 101 -21 190 -62 270 -23 45 -78 122 -92 128 -52 23 141 30
323 12 298 -30 509 -98 765 -246 209 -120 464 -337 606 -514 93 -115 99 -106
20 35 -201 359 -559 677 -947 841 -467 199 -1035 215 -1662 49 -54 -15 -168
-47 -253 -71 l-155 -45 -190 4 c-171 4 -199 7 -280 31 -114 35 -231 90 -317
149 -38 26 -68 43 -68 38z"/>
<path d="M12553 3532 c-99 -35 -179 -119 -221 -230 -33 -89 -42 -263 -18 -366
31 -133 125 -244 237 -281 38 -13 74 -16 143 -13 99 5 150 24 196 73 l25 27 5
-49 c5 -46 6 -48 39 -51 20 -2 37 2 42 10 5 7 9 81 9 163 0 183 6 198 73 206
53 6 69 20 65 59 l-3 25 -215 0 -215 0 0 -35 c0 -39 16 -47 101 -49 66 -1 78
-15 76 -92 -4 -129 -76 -199 -206 -199 -180 1 -273 141 -264 399 3 102 7 124
32 179 48 103 119 152 224 152 77 0 119 -15 164 -58 39 -37 58 -93 58 -171 0
-49 21 -68 58 -55 l27 9 7 170 c4 113 3 174 -4 182 -15 18 -65 16 -72 -3 -3
-9 -6 -27 -6 -41 0 -24 -1 -25 -17 -11 -10 9 -38 26 -63 39 -63 32 -203 37
-277 11z"/>
<path d="M2803 3525 c-25 -18 -30 -44 -11 -63 7 -7 36 -12 64 -12 56 0 80 -14
89 -53 3 -12 5 -155 3 -318 -4 -349 -1 -339 -99 -339 -55 0 -59 -2 -65 -27
-10 -37 27 -67 71 -58 68 14 185 16 259 6 70 -10 81 -9 98 5 41 38 15 74 -53
74 -31 0 -55 6 -70 19 -23 18 -24 26 -27 154 -3 131 -3 136 19 147 28 16 214
8 250 -9 40 -20 51 -54 57 -189 4 -103 8 -129 26 -154 59 -88 230 -67 270 32
20 50 23 249 4 268 -16 16 -53 15 -66 0 -5 -7 -12 -62 -14 -122 -4 -99 -7
-111 -28 -128 -28 -22 -32 -22 -61 1 -21 17 -24 29 -29 140 -7 135 -19 163
-78 191 -39 19 -40 26 -2 33 16 4 45 17 65 29 102 66 100 266 -4 335 -69 46
-134 52 -451 43 -74 -2 -148 -1 -165 3 -21 5 -37 3 -52 -8z m564 -95 c56 -24
77 -65 71 -138 -4 -46 -10 -60 -36 -83 -43 -39 -89 -49 -224 -49 l-118 0 0
123 c0 150 4 157 108 167 88 8 148 2 199 -20z"/>
<path d="M5242 3530 c-29 -12 -37 -35 -23 -67 11 -24 15 -25 60 -19 39 5 53 3
72 -13 l24 -19 3 -289 c2 -158 1 -302 -3 -320 -9 -49 -29 -63 -89 -63 -28 0
-57 -5 -64 -12 -19 -19 -14 -46 11 -62 19 -13 36 -14 114 -4 69 9 116 9 189 0
87 -10 101 -9 116 5 21 19 23 44 6 61 -7 7 -38 12 -70 12 -92 0 -98 10 -98
175 0 127 1 135 21 146 23 12 133 8 146 -5 5 -4 10 -42 13 -83 6 -84 18 -101
65 -89 l28 7 -8 102 c-10 124 -10 110 0 233 7 99 7 102 -15 114 -17 9 -29 9
-46 1 -22 -10 -24 -16 -24 -85 0 -91 -8 -98 -108 -94 l-67 3 -3 116 c-3 138 0
144 84 155 65 8 219 -3 246 -17 28 -15 38 -52 38 -143 0 -50 5 -87 12 -94 16
-16 53 -15 65 1 6 6 13 83 17 169 8 200 17 191 -169 176 -125 -9 -474 -6 -505
5 -8 3 -25 2 -38 -3z"/>
<path d="M7424 3530 c-29 -12 -37 -26 -30 -56 6 -22 11 -24 64 -24 31 0 62 -4
69 -8 28 -18 33 -70 33 -353 0 -349 0 -349 -96 -349 -27 0 -55 -5 -62 -12 -19
-19 -14 -46 12 -63 20 -13 34 -14 87 -5 82 13 157 13 235 -1 72 -12 104 -2
104 34 0 35 -19 47 -75 47 -77 0 -89 18 -93 139 l-4 98 76 67 c41 37 80 65 85
61 21 -12 260 -348 255 -356 -3 -5 -40 -9 -84 -9 -82 0 -90 -5 -90 -50 0 -34
29 -39 148 -28 82 8 136 8 204 0 81 -10 94 -10 110 5 41 37 15 73 -54 73 -73
0 -81 9 -315 328 -46 63 -83 117 -83 121 0 10 263 228 296 246 16 8 52 15 80
15 54 0 64 8 64 51 0 31 -38 39 -124 27 -56 -8 -105 -8 -181 0 -130 14 -158 7
-153 -40 3 -33 3 -33 63 -36 80 -3 91 -8 74 -28 -13 -16 -296 -259 -347 -298
l-25 -20 5 152 c5 184 9 192 98 192 60 0 70 7 70 51 0 31 -41 40 -128 28 -69
-10 -194 -7 -247 5 -11 3 -30 1 -41 -4z"/>
<path d="M8686 3527 c-12 -9 -17 -23 -14 -42 3 -26 7 -30 38 -33 102 -8 102
-6 98 -359 -3 -269 -2 -279 19 -318 48 -91 122 -127 270 -133 124 -5 186 12
249 70 76 70 84 108 84 391 1 219 8 318 23 333 3 3 25 8 49 11 50 7 68 18 68
44 0 38 -38 49 -122 36 -57 -8 -101 -8 -165 0 -98 12 -133 4 -133 -32 0 -33
20 -45 72 -45 52 0 83 -20 93 -63 4 -13 5 -138 3 -278 -3 -230 -5 -258 -23
-294 -30 -59 -82 -85 -172 -85 -98 0 -155 27 -184 87 -19 40 -20 56 -17 311 4
323 3 319 99 324 53 3 63 6 70 25 14 39 -12 59 -73 54 -87 -8 -220 -7 -268 2
-32 5 -51 4 -64 -6z"/>
<path d="M10224 3526 c-35 -16 -22 16 -179 -411 -53 -143 -103 -279 -112 -303
-19 -52 -45 -72 -93 -72 -41 0 -60 -14 -60 -47 0 -37 31 -46 116 -32 70 11
210 8 260 -6 12 -4 29 1 44 13 22 17 23 23 12 46 -10 23 -17 26 -66 26 -67 0
-106 14 -106 37 0 18 48 147 63 171 6 9 49 12 157 12 131 0 149 -2 155 -17 56
-141 64 -172 49 -188 -10 -10 -35 -15 -73 -15 -66 0 -87 -15 -77 -54 8 -34 25
-37 138 -24 77 8 122 8 190 -1 99 -13 128 -6 128 32 0 35 -19 47 -75 47 -85 0
-75 -18 -230 410 -58 162 -111 307 -117 322 -21 55 -72 77 -124 54z m94 -284
c29 -92 53 -173 53 -179 -1 -15 -216 -19 -225 -5 -6 10 105 352 113 352 3 0
30 -76 59 -168z"/>
<path d="M11069 3528 c-16 -6 -20 -15 -17 -40 3 -33 4 -33 64 -39 75 -7 81
-11 94 -57 14 -51 13 -570 -1 -611 -12 -34 -25 -39 -104 -43 -48 -3 -50 -4
-53 -36 -5 -46 24 -54 133 -40 64 9 106 9 172 0 74 -10 90 -9 110 3 25 17 30
44 11 63 -7 7 -35 12 -63 12 -94 0 -90 -18 -93 357 l-2 328 19 -40 c11 -22 42
-87 69 -145 27 -58 93 -194 146 -303 53 -109 96 -201 96 -206 0 -4 16 -26 36
-49 31 -37 41 -42 78 -42 30 0 48 6 61 20 25 27 38 167 32 325 -6 146 2 427
13 446 4 6 34 14 66 18 58 6 59 7 62 39 5 45 -24 55 -126 40 -58 -9 -99 -9
-157 -1 -100 15 -128 6 -123 -39 3 -33 4 -33 66 -39 45 -4 67 -11 77 -25 12
-16 14 -75 14 -334 l0 -315 -24 47 c-14 26 -93 190 -176 365 -83 175 -157 324
-165 332 -9 11 -47 14 -154 15 -78 1 -150 -2 -161 -6z"/>
<path d="M4081 2774 c-44 -56 -11 -134 58 -134 49 0 81 32 81 81 0 74 -95 109
-139 53z"/>
<path d="M6261 2774 c-44 -56 -11 -134 58 -134 72 0 109 86 61 138 -31 33 -92
30 -119 -4z"/>
<path d="M4728 2158 c-49 -13 -84 -55 -104 -125 -30 -104 12 -171 102 -160 78
8 136 87 138 184 0 44 -4 57 -24 77 -31 29 -64 36 -112 24z m73 -37 c61 -49
-2 -221 -81 -221 -47 0 -64 22 -64 82 1 61 21 107 60 137 33 26 55 26 85 2z"/>
<path d="M7474 2159 c-43 -12 -77 -52 -76 -89 1 -41 7 -48 55 -60 67 -17 87
-28 87 -49 0 -29 -39 -61 -73 -61 -49 0 -67 16 -67 60 0 64 -24 49 -37 -22
-13 -69 -11 -78 16 -61 11 7 23 8 32 2 51 -32 148 11 163 74 12 46 -9 73 -63
83 -57 10 -73 22 -69 52 4 39 52 61 87 40 21 -11 25 -21 23 -46 -1 -22 2 -32
12 -32 16 0 21 13 32 72 6 36 5 37 -22 36 -16 -1 -38 1 -49 4 -11 3 -34 2 -51
-3z"/>
<path d="M11415 2165 c-5 -2 -22 -6 -37 -9 -16 -4 -38 -21 -53 -43 -47 -70
-27 -196 36 -228 37 -19 89 -19 117 1 20 14 22 14 22 0 0 -9 7 -16 15 -16 12
0 15 13 15 56 0 47 3 57 20 61 11 3 20 12 20 19 0 11 -17 14 -70 14 -54 0 -70
-3 -70 -14 0 -9 12 -16 27 -18 58 -6 30 -88 -30 -88 -59 1 -87 42 -87 128 0
54 20 89 58 103 36 14 81 -6 88 -40 9 -44 13 -51 24 -51 5 0 10 22 10 50 0 28
0 53 0 58 0 4 -12 7 -27 7 -16 1 -37 4 -48 7 -11 3 -24 5 -30 3z"/>
<path d="M13450 2156 c-52 -17 -80 -66 -80 -138 0 -103 50 -156 134 -145 75
10 120 95 102 192 -14 73 -85 114 -156 91z m95 -47 c16 -16 20 -33 20 -88 0
-60 -3 -73 -24 -95 -38 -41 -91 -34 -116 15 -32 60 -10 180 34 193 26 7 65 -4
86 -25z"/>
<path d="M2004 2120 c-6 -34 -10 -40 -30 -40 -15 0 -24 -6 -24 -15 0 -8 9 -15
21 -15 30 0 23 -52 -9 -60 -29 -6 -30 -24 -2 -28 17 -3 19 -8 14 -43 -5 -31
-3 -39 9 -39 17 0 27 21 27 56 0 19 5 24 26 24 24 0 26 -3 22 -40 -3 -32 0
-40 13 -40 12 0 19 12 24 39 5 30 12 41 27 43 29 4 36 28 9 28 -17 0 -21 6
-21 30 0 25 4 30 25 30 16 0 25 6 25 15 0 9 -9 15 -21 15 -19 0 -20 4 -14 41
6 36 5 40 -11 37 -13 -2 -21 -15 -24 -38 -4 -29 -10 -36 -32 -38 -25 -3 -26
-2 -21 37 5 33 3 41 -11 41 -11 0 -18 -12 -22 -40z m76 -77 c-1 -33 -15 -53
-36 -53 -24 0 -30 14 -18 44 6 16 54 23 54 9z"/>
<path d="M2307 2154 c-11 -12 3 -24 27 -24 23 0 24 -4 28 -77 6 -118 1 -141
-30 -145 -14 -2 -27 -9 -30 -15 -3 -10 18 -13 83 -13 65 0 86 3 83 13 -3 6
-18 14 -34 17 l-29 5 -2 105 c-1 58 -2 113 -3 123 0 13 -9 17 -43 17 -24 0
-47 -3 -50 -6z"/>
<path d="M2847 2154 c-13 -13 -7 -23 16 -26 26 -4 26 -29 1 -145 -14 -65 -18
-72 -42 -75 -14 -2 -27 -9 -30 -16 -3 -10 13 -12 70 -10 42 2 72 7 71 13 -1 6
-11 11 -23 13 -24 4 -24 12 -1 122 11 56 20 78 24 65 3 -11 15 -54 27 -95 31
-111 40 -130 61 -130 26 0 34 20 54 135 20 109 27 125 57 125 11 0 18 5 16 13
-3 8 -26 12 -68 12 -42 0 -65 -4 -67 -12 -3 -8 4 -13 16 -13 31 0 33 -15 13
-120 l-19 -95 -17 60 c-10 33 -25 87 -35 120 l-17 60 -50 3 c-27 2 -53 0 -57
-4z"/>
<path d="M3247 2154 c-13 -14 -7 -24 14 -24 21 0 21 -3 16 -57 -12 -106 -29
-157 -56 -163 -14 -3 -26 -11 -29 -18 -5 -15 233 -17 243 -2 3 5 9 33 12 61 5
41 3 51 -8 47 -7 -2 -16 -18 -20 -35 -10 -48 -17 -53 -76 -53 l-56 0 7 47 c7
56 17 67 45 58 16 -5 20 -12 15 -31 -5 -18 -2 -24 10 -24 9 0 18 11 21 28 3
15 9 45 14 67 5 22 8 42 6 44 -10 9 -35 -10 -35 -28 0 -20 -32 -37 -50 -26
-11 7 -3 53 13 73 11 14 75 16 96 3 10 -6 12 -19 7 -45 -6 -29 -4 -36 8 -36
17 0 27 29 29 82 l2 33 -111 3 c-60 1 -113 -1 -117 -4z"/>
<path d="M3595 2152 c-11 -11 -4 -22 14 -22 24 0 31 -35 31 -149 0 -153 31
-150 94 9 l41 105 3 -108 c2 -86 6 -109 18 -114 23 -9 33 6 89 134 41 97 55
119 73 121 13 2 21 9 19 15 -5 17 -129 16 -134 0 -3 -8 5 -13 21 -13 14 0 26
-4 26 -9 0 -16 -63 -171 -69 -171 -3 0 -6 46 -6 102 l0 103 -25 0 c-22 0 -29
-11 -67 -105 l-42 -105 0 92 c-1 91 -1 92 24 95 14 2 25 8 25 13 0 10 -125 16
-135 7z"/>
<path d="M4245 2152 c-11 -11 -4 -21 16 -24 24 -3 27 -7 65 -91 32 -69 26
-117 -16 -127 -13 -3 -25 -11 -28 -18 -3 -9 16 -12 67 -12 56 0 71 3 71 15 0
9 -9 15 -21 15 -19 0 -21 4 -16 36 7 43 113 176 146 184 45 10 19 25 -44 25
-36 0 -65 -4 -65 -10 -1 -5 8 -11 20 -13 11 -2 20 -6 20 -9 0 -3 -19 -28 -42
-55 l-42 -50 -17 43 c-23 57 -23 67 1 71 12 2 21 8 20 13 0 10 -125 16 -135 7z"/>
<path d="M4997 2153 c-13 -13 -7 -23 14 -23 20 0 21 -3 15 -58 -12 -108 -28
-156 -55 -162 -14 -3 -26 -11 -29 -18 -3 -9 16 -12 67 -12 56 0 71 3 71 15 0
8 -9 15 -20 15 -23 0 -27 31 -10 74 8 21 16 26 42 26 51 0 58 -10 55 -70 -2
-59 8 -68 58 -56 23 6 45 49 45 87 0 33 -26 20 -36 -18 -14 -55 -34 -55 -34 0
0 25 -3 52 -6 61 -4 10 -1 16 10 16 21 0 49 56 42 84 -3 13 -17 28 -31 34 -27
13 -187 17 -198 5z m174 -33 c23 -13 24 -37 2 -62 -11 -13 -30 -18 -65 -18
l-50 0 7 33 c4 17 12 38 17 45 13 15 62 16 89 2z"/>
<path d="M5375 2151 c-11 -10 -4 -21 15 -21 25 0 25 -17 5 -125 -16 -83 -25
-100 -52 -100 -9 0 -18 -6 -20 -12 -4 -10 14 -13 66 -13 56 0 71 3 71 15 0 8
-9 15 -20 15 -32 0 -26 50 10 85 16 16 31 27 33 24 8 -10 57 -98 57 -102 0 -2
-13 -7 -30 -10 -59 -12 -31 -27 51 -27 60 0 80 3 77 13 -3 6 -14 13 -27 15
-18 3 -50 49 -89 134 -5 11 115 88 138 88 13 0 20 5 18 13 -6 16 -140 17 -145
0 -2 -6 6 -13 19 -15 19 -3 13 -10 -42 -51 -70 -52 -82 -49 -60 18 9 27 17 35
36 35 14 0 24 6 24 14 0 10 -16 13 -65 13 -36 0 -68 -3 -70 -6z"/>
<path d="M5966 2143 c-3 -10 -8 -40 -12 -67 -5 -39 -4 -48 7 -44 8 3 18 18 23
34 13 46 22 59 41 62 33 7 37 -13 20 -99 -23 -118 -23 -119 -50 -119 -12 0
-25 -7 -29 -15 -4 -13 7 -15 70 -15 56 0 74 3 71 13 -2 6 -9 11 -15 10 -26 -6
-28 25 -10 117 20 97 28 112 63 108 17 -3 20 -9 17 -52 -3 -37 -1 -47 10 -44
14 5 41 95 33 116 -3 9 -36 12 -119 12 -101 0 -115 -2 -120 -17z"/>
<path d="M6315 2151 c-11 -10 -4 -21 15 -21 25 0 25 -33 2 -140 -15 -64 -20
-75 -41 -80 -14 -3 -26 -11 -29 -18 -3 -9 16 -12 67 -12 56 0 71 3 71 15 0 8
-9 15 -20 15 -24 0 -25 14 -5 112 22 105 24 108 51 108 14 0 24 6 24 14 0 10
-16 13 -65 13 -36 0 -68 -3 -70 -6z"/>
<path d="M6557 2154 c-13 -14 -7 -24 14 -24 21 0 21 -3 16 -57 -12 -106 -29
-157 -56 -163 -14 -3 -26 -11 -29 -18 -3 -9 16 -12 67 -12 45 0 71 4 71 11 0
6 -9 13 -20 16 -24 6 -25 14 -3 128 l17 90 15 -120 c14 -107 18 -120 36 -123
17 -2 32 18 83 115 58 109 62 114 57 73 -16 -110 -30 -154 -55 -160 -13 -3
-25 -11 -28 -18 -3 -9 16 -12 67 -12 56 0 71 3 71 15 0 9 -9 15 -25 15 -24 0
-25 2 -19 43 4 23 14 71 23 107 15 59 18 65 44 68 50 6 24 27 -34 27 l-54 0
-55 -107 c-30 -60 -58 -108 -62 -108 -3 0 -9 30 -13 68 -3 37 -10 85 -13 107
-8 40 -8 40 -58 43 -27 2 -53 0 -57 -4z"/>
<path d="M7037 2153 c-13 -12 -7 -23 12 -23 11 0 22 -4 25 -9 3 -5 -3 -53 -14
-106 -11 -54 -20 -99 -20 -100 0 -2 -12 -5 -27 -7 -14 -2 -28 -9 -31 -15 -3
-10 26 -13 121 -13 l125 0 7 38 c3 20 9 47 12 60 4 15 1 22 -10 22 -9 0 -21
-17 -29 -42 l-13 -43 -58 -3 -59 -3 7 43 c8 50 26 73 50 64 13 -4 15 -13 11
-32 -6 -21 -4 -25 11 -22 12 2 20 16 24 43 3 22 9 52 14 68 5 21 4 27 -8 27
-9 0 -19 -10 -23 -22 -14 -45 -54 -52 -54 -10 0 47 20 64 70 60 l45 -3 1 -40
c0 -28 5 -40 15 -40 14 0 26 36 28 88 l1 27 -113 0 c-63 0 -117 -3 -120 -7z"/>
<path d="M7867 2153 c-13 -12 -7 -22 16 -25 21 -3 22 -8 25 -110 3 -103 2
-107 -19 -110 -13 -2 -24 -9 -27 -15 -6 -19 180 -18 217 2 49 25 56 82 15 114
l-25 20 21 29 c28 37 15 75 -31 91 -34 12 -181 15 -192 4z m183 -41 c19 -15
21 -22 11 -39 -11 -22 -80 -41 -101 -28 -11 7 -14 68 -3 78 13 14 71 7 93 -11z
m15 -112 c20 -16 19 -54 -1 -75 -12 -11 -30 -15 -63 -13 -46 3 -46 3 -49 42
-5 61 2 69 53 64 25 -3 52 -11 60 -18z"/>
<path d="M8237 2154 c-14 -14 -6 -24 18 -24 l25 0 0 -109 c0 -105 -1 -110 -22
-113 -12 -2 -23 -9 -26 -15 -3 -10 26 -13 122 -13 l126 0 0 54 c0 55 -15 81
-31 55 -5 -8 -7 -20 -4 -27 3 -7 0 -22 -5 -33 -9 -15 -22 -19 -65 -19 l-55 0
0 49 c0 54 9 66 40 56 13 -4 20 -15 20 -31 0 -13 6 -24 13 -24 11 0 14 17 12
68 -1 51 -5 67 -16 67 -8 0 -13 -7 -11 -16 3 -21 -23 -43 -43 -35 -12 4 -15
16 -13 43 3 37 4 38 46 41 53 4 72 -10 72 -54 0 -24 5 -34 15 -34 13 0 15 11
13 58 l-3 57 -111 3 c-60 1 -113 -1 -117 -4z"/>
<path d="M8642 2140 c-15 -15 -22 -32 -22 -60 0 -46 21 -64 85 -76 60 -10 75
-21 75 -54 0 -33 -23 -50 -67 -50 -40 1 -63 22 -70 64 -3 21 -11 36 -19 36
-10 0 -14 -17 -14 -65 0 -49 3 -65 14 -65 8 0 16 5 18 11 3 9 9 9 25 0 63 -33
153 10 153 72 -1 47 -21 66 -91 85 -61 16 -64 19 -67 50 -3 27 1 34 23 42 39
15 74 3 81 -29 10 -46 14 -53 27 -49 7 3 13 25 14 55 l2 50 -72 1 c-61 2 -76
-1 -95 -18z"/>
<path d="M8937 2154 c-11 -12 -8 -112 4 -119 16 -11 24 3 24 42 0 39 21 60 49
50 13 -5 16 -23 16 -111 0 -100 -1 -105 -22 -108 -12 -2 -23 -9 -26 -15 -3
-10 15 -13 67 -13 55 0 71 3 71 14 0 8 -10 16 -22 18 -22 3 -23 9 -26 88 -4
114 1 132 36 128 24 -3 27 -8 30 -43 4 -44 18 -67 30 -48 4 6 7 35 7 65 l0 53
-116 3 c-63 1 -118 -1 -122 -4z"/>
<path d="M9316 2139 c-18 -14 -26 -30 -26 -53 0 -46 17 -63 85 -80 33 -8 65
-23 72 -32 24 -33 -11 -74 -62 -74 -38 0 -62 24 -67 65 -2 19 -9 31 -20 33
-16 3 -18 -5 -18 -62 0 -50 3 -66 14 -66 8 0 16 4 18 9 2 6 19 5 44 -1 75 -20
134 13 134 77 0 44 -27 72 -77 81 -49 8 -83 30 -83 53 0 23 31 51 56 51 29 0
64 -36 64 -65 0 -16 6 -25 15 -25 11 0 15 13 15 53 l0 53 -69 2 c-56 2 -73 -2
-95 -19z"/>
<path d="M9607 2154 c-14 -14 -6 -24 18 -24 l25 0 0 -109 c0 -105 -1 -110 -22
-113 -12 -2 -23 -9 -26 -16 -3 -10 23 -12 120 -10 l123 3 3 58 c2 46 0 57 -13
57 -10 0 -15 -10 -15 -34 0 -45 -18 -58 -77 -54 l-48 3 0 50 c0 47 2 50 25 50
20 0 26 -6 28 -27 2 -16 9 -28 16 -28 9 0 13 20 13 70 0 52 -3 70 -13 70 -8 0
-14 -11 -14 -24 0 -16 -7 -27 -21 -31 -29 -9 -41 6 -37 46 3 32 5 34 46 37 53
4 72 -10 72 -54 0 -24 5 -34 15 -34 13 0 15 11 13 58 l-3 57 -111 3 c-60 1
-113 -1 -117 -4z"/>
<path d="M9966 2152 c-13 -12 -5 -21 22 -24 l27 -3 0 -105 c0 -102 0 -104 -24
-110 -14 -3 -26 -11 -29 -18 -3 -9 27 -12 122 -12 l126 0 0 60 c0 47 -3 60
-15 60 -10 0 -15 -10 -15 -32 0 -52 -10 -60 -71 -56 l-54 3 -3 85 c-4 110 1
130 34 130 16 0 24 5 22 12 -5 13 -131 22 -142 10z"/>
<path d="M10320 2145 c0 -8 10 -15 23 -17 21 -3 22 -7 22 -108 0 -101 -1 -105
-22 -108 -13 -2 -23 -10 -23 -18 0 -11 23 -14 120 -14 l120 0 0 60 c0 46 -3
60 -14 60 -10 0 -16 -14 -18 -42 l-3 -43 -58 -3 -58 -3 3 108 c3 104 4 108 26
111 13 2 21 9 19 15 -6 18 -137 19 -137 2z"/>
<path d="M10665 2152 c-12 -12 -3 -22 20 -22 l25 0 0 -109 c0 -105 -1 -110
-22 -113 -12 -2 -23 -9 -26 -16 -3 -10 13 -12 70 -10 71 3 94 17 46 28 -21 5
-23 11 -26 90 -4 103 2 128 28 132 12 2 21 8 20 13 0 10 -125 16 -135 7z"/>
<path d="M10907 2153 c-14 -13 -6 -23 17 -23 31 0 36 -15 36 -120 0 -89 -6
-104 -39 -105 -8 0 -16 -6 -18 -12 -4 -10 14 -13 66 -13 55 0 71 3 71 14 0 8
-10 16 -22 18 -22 3 -23 8 -25 103 l-2 100 60 -123 c52 -108 62 -123 82 -120
21 3 22 8 27 128 5 121 6 125 28 128 47 7 15 27 -46 29 -48 1 -62 -2 -62 -13
0 -8 9 -14 19 -14 27 0 31 -19 30 -123 l-1 -92 -59 123 -60 122 -48 0 c-26 0
-51 -3 -54 -7z"/>
<path d="M11961 2118 c-10 -24 -31 -78 -47 -122 -21 -57 -35 -81 -51 -87 -44
-17 -24 -29 48 -29 52 0 70 3 67 13 -3 6 -16 13 -31 15 -24 3 -25 5 -15 33 9
27 14 29 59 29 38 0 51 -4 59 -19 15 -29 12 -39 -12 -43 -12 -2 -23 -9 -26
-15 -3 -10 16 -13 73 -13 56 0 76 3 73 12 -3 7 -15 15 -29 18 -19 5 -30 22
-56 95 -64 173 -79 189 -112 113z m63 -95 c7 -21 4 -23 -28 -23 -41 0 -41 0
-19 65 l16 49 12 -34 c7 -19 15 -45 19 -57z"/>
<path d="M12230 2145 c0 -7 9 -15 20 -18 18 -5 20 -14 20 -105 0 -126 10 -143
93 -150 50 -4 58 -2 81 21 24 24 26 33 26 116 0 103 5 121 32 121 11 0 18 5
16 13 -3 8 -26 12 -68 12 -42 0 -65 -4 -67 -12 -3 -8 5 -13 22 -13 l26 0 -3
-107 c-3 -107 -3 -108 -30 -117 -18 -6 -38 -6 -55 0 l-28 9 0 105 c0 101 1
105 23 108 12 2 22 9 22 16 0 10 -18 14 -65 14 -46 0 -65 -4 -65 -13z"/>
<path d="M12607 2153 c-2 -4 -4 -33 -3 -63 1 -42 5 -55 16 -55 10 0 17 14 20
45 4 37 9 46 27 48 34 5 44 -27 41 -125 -3 -83 -4 -87 -27 -93 -14 -3 -26 -11
-29 -18 -3 -9 17 -12 73 -12 57 0 76 3 72 13 -2 6 -10 12 -18 12 -33 1 -39 16
-38 93 1 94 9 126 33 130 26 5 39 -12 40 -55 1 -27 5 -38 16 -38 12 0 15 13
15 60 l0 60 -117 3 c-64 1 -118 -1 -121 -5z"/>
<path d="M12954 2148 c-3 -4 2 -10 10 -13 9 -3 23 -7 31 -10 13 -4 15 -22 13
-107 -3 -97 -4 -102 -26 -108 -48 -11 -25 -25 46 -28 56 -2 73 0 70 10 -3 7
-15 15 -29 18 -21 5 -24 11 -24 55 l0 50 63 3 62 3 0 -55 c0 -48 -2 -55 -22
-58 -12 -2 -23 -9 -26 -16 -3 -10 13 -12 70 -10 71 3 94 17 46 28 -22 6 -23 9
-23 110 0 101 1 105 23 108 12 2 22 9 22 16 0 17 -132 15 -138 -2 -2 -7 7 -12
22 -12 24 0 26 -3 26 -45 l0 -46 -62 3 c-68 3 -77 12 -64 64 5 18 13 24 32 24
16 0 24 5 22 13 -5 14 -135 19 -144 5z"/>
<path d="M13718 2154 c-15 -14 -8 -24 17 -24 32 0 37 -20 33 -130 -3 -80 -4
-84 -27 -90 -14 -3 -26 -11 -29 -18 -3 -9 17 -12 73 -12 56 0 76 3 73 12 -3 7
-15 15 -29 18 -21 5 -24 12 -24 50 0 44 1 45 35 48 50 3 61 -8 68 -69 7 -53 8
-54 42 -57 42 -4 60 16 60 70 0 52 -28 53 -32 1 -4 -54 -32 -52 -36 2 -2 22
-8 46 -14 53 -8 10 -6 17 10 28 29 20 30 74 1 100 -17 15 -40 20 -118 22 -53
2 -99 0 -103 -4z m183 -34 c24 -13 26 -65 3 -74 -9 -3 -36 -6 -60 -6 -43 0
-44 1 -44 33 0 18 5 38 12 45 15 15 63 16 89 2z"/>
</g>
</svg>
