<?xml version="1.0" standalone="no"?>
<!DOCTYPE svg PUBLIC "-//W3C//DTD SVG 20010904//EN"
 "http://www.w3.org/TR/2001/REC-SVG-20010904/DTD/svg10.dtd">
<svg version="1.0" xmlns="http://www.w3.org/2000/svg"
 width="500.000000pt" height="750.000000pt" viewBox="0 0 500.000000 750.000000"
 preserveAspectRatio="xMidYMid meet">

<g transform="translate(0.000000,750.000000) scale(0.100000,-0.100000)"
fill="#000000" stroke="none">
<path d="M0 3750 l0 -3750 2500 0 2500 0 0 3750 0 3750 -2500 0 -2500 0 0
-3750z m737 2933 c7 -21 37 -92 63 -148 10 -22 28 -62 40 -90 154 -351 147
-336 195 -370 18 -13 8 -14 -89 -15 -107 0 -109 0 -92 19 21 23 19 34 -31 149
l-36 82 -98 0 -98 0 -36 -77 c-47 -102 -50 -118 -31 -148 l16 -25 -92 0 -92 0
32 28 c21 18 72 107 160 282 71 140 135 272 141 293 13 39 37 49 48 20z m1146
-23 c47 -18 57 -26 58 -46 5 -96 4 -98 -27 -63 -36 40 -109 69 -173 69 -52 0
-65 -4 -103 -33 -24 -18 -54 -53 -68 -77 -22 -39 -25 -57 -25 -140 0 -78 4
-102 22 -135 28 -53 60 -81 112 -100 85 -30 173 -10 238 54 l32 32 3 -28 c7
-66 -2 -91 -41 -106 -175 -70 -356 -28 -438 101 -37 58 -43 83 -44 180 -1 90
9 119 62 189 87 116 245 158 392 103z m650 2 c116 -52 175 -133 184 -255 9
-116 -14 -177 -93 -254 -54 -52 -75 -65 -131 -82 -134 -40 -275 -9 -365 81
-57 57 -81 117 -81 209 -1 64 4 85 30 141 37 79 115 147 197 172 72 22 196 16
259 -12z m435 -4 c-9 -17 -13 -80 -13 -228 0 -188 2 -208 20 -240 40 -69 148
-92 216 -47 61 40 67 67 71 301 2 160 0 210 -10 214 -32 10 -5 22 52 22 l65 0
-15 -27 c-11 -22 -14 -74 -14 -228 0 -173 -3 -205 -19 -240 -39 -84 -114 -125
-231 -125 -110 0 -172 31 -218 109 -25 42 -25 47 -27 257 -2 191 -4 216 -20
234 -18 20 -17 20 69 20 l87 0 -13 -22z m936 -7 c103 -64 101 -188 -4 -259
-19 -13 -47 -26 -62 -29 l-27 -5 35 -70 c63 -126 160 -208 244 -208 22 0 40
-4 40 -9 0 -16 -86 -24 -140 -12 -122 26 -206 102 -296 266 -7 12 -24 21 -43
23 l-31 3 0 -125 c0 -97 3 -128 15 -140 8 -8 15 -17 15 -20 0 -3 -38 -6 -85
-6 -77 0 -102 8 -75 25 6 4 10 110 10 285 0 175 -4 281 -10 285 -35 22 2 26
183 23 182 -3 194 -4 231 -27z m686 20 c0 -9 -21 -74 -26 -80 -2 -2 -11 2 -19
9 -9 7 -49 15 -90 18 l-75 5 0 -259 c0 -251 1 -258 22 -281 l21 -23 -98 0 -98
0 19 21 c18 20 19 39 19 278 l0 256 -78 -2 c-43 -2 -87 -8 -98 -14 -29 -15
-34 -5 -20 41 l12 40 254 0 c140 0 255 -4 255 -9z m-2963 -1116 c48 -20 101
-70 119 -112 21 -48 18 -146 -5 -192 -25 -49 -89 -105 -136 -121 -20 -7 -65
-10 -99 -8 -87 5 -151 40 -195 103 -32 48 -33 53 -29 126 4 64 9 82 33 116 72
100 198 135 312 88z m501 -10 c-11 -24 -15 -25 -103 -25 l-92 0 -1 -66 -1 -66
64 6 c36 3 65 4 65 1 0 -2 -4 -15 -10 -29 -9 -25 -12 -26 -65 -20 l-56 7 3
-99 c2 -54 6 -105 8 -112 4 -10 -9 -14 -47 -15 -49 -2 -52 -1 -46 18 13 36 7
394 -7 410 -11 13 7 15 144 15 l156 0 -12 -25z m-1192 -935 c-2 -14 -9 -38
-16 -54 -10 -27 -12 -28 -29 -12 -13 12 -38 16 -99 16 l-82 0 -2 -252 c-1
-308 -1 -308 25 -335 l20 -23 -101 0 c-93 0 -126 9 -87 24 13 5 15 47 15 296
l0 290 -75 0 c-43 0 -90 -6 -110 -14 -18 -8 -36 -12 -38 -9 -5 4 16 73 27 91
2 4 129 7 281 7 l277 0 -6 -25z m704 19 c0 -4 -7 -12 -15 -19 -13 -11 -15 -59
-15 -318 0 -270 2 -308 17 -324 15 -17 12 -18 -85 -18 -94 0 -130 10 -82 23
19 5 20 14 20 156 l0 151 -155 0 -155 0 0 -149 c0 -143 1 -149 23 -164 21 -15
15 -16 -83 -16 -96 0 -103 1 -85 15 19 14 20 28 23 316 2 259 1 303 -13 324
l-15 24 90 0 91 0 -15 -22 c-12 -17 -16 -49 -16 -135 l0 -113 155 0 155 0 0
119 c0 93 -3 121 -15 131 -8 7 -13 15 -11 19 5 8 186 8 186 0z m591 -3 c163
-38 264 -168 260 -333 -2 -82 -24 -146 -72 -209 -50 -65 -101 -100 -179 -125
-185 -57 -378 16 -459 174 -31 60 -35 76 -34 145 0 95 27 172 84 235 94 108
244 150 400 113z m761 0 c138 -22 205 -134 148 -246 -21 -40 -105 -100 -142
-100 -28 0 -22 -20 32 -111 84 -139 159 -199 248 -199 43 0 61 -19 20 -21 -13
0 -34 -2 -48 -4 -41 -5 -147 23 -191 51 -63 40 -126 110 -177 196 -44 77 -46
79 -81 76 l-36 -3 -1 -134 c-1 -118 1 -136 17 -152 11 -11 19 -21 19 -24 0 -3
-40 -5 -90 -5 -89 0 -102 4 -77 28 9 10 12 86 12 311 0 271 -2 301 -17 318
-10 11 -18 21 -18 24 0 6 339 1 382 -5z m536 -28 c17 -26 221 -279 281 -348
l30 -35 1 181 c0 169 -1 183 -21 208 l-20 26 82 0 83 0 -22 -20 c-22 -21 -22
-24 -22 -345 0 -180 -4 -325 -9 -325 -5 0 -40 42 -79 93 -38 50 -83 108 -98
127 -16 19 -51 61 -79 95 -27 33 -77 94 -109 135 -33 41 -63 79 -68 85 -4 5
-8 -100 -8 -233 l0 -243 26 -24 27 -25 -82 0 c-44 0 -81 3 -81 6 0 3 7 12 15
20 13 13 15 61 14 309 0 277 -1 295 -20 319 l-20 25 48 3 c77 5 111 -4 131
-34z m967 21 l47 -12 -7 -56 c-4 -31 -8 -57 -10 -59 -2 -2 -22 10 -44 26 -106
77 -280 62 -289 -25 -6 -58 43 -87 223 -132 61 -16 129 -63 148 -104 19 -40
22 -122 6 -164 -40 -107 -199 -171 -362 -145 -42 6 -94 19 -116 28 l-41 16 0
74 c0 41 2 74 5 74 3 0 19 -16 36 -35 45 -51 87 -73 163 -85 78 -12 159 4 190
39 25 28 31 82 12 119 -18 34 -45 51 -116 71 -193 56 -211 65 -240 125 -44 91
-12 181 82 228 29 15 67 29 83 32 46 7 177 -2 230 -15z m-1526 -1227 c19 -42
47 -104 62 -137 14 -33 41 -93 58 -133 17 -41 41 -82 53 -92 23 -19 23 -19
-50 -20 -67 0 -71 1 -61 18 9 14 4 32 -21 90 l-33 72 -68 0 -68 0 -32 -66
c-26 -55 -29 -70 -20 -90 11 -24 10 -24 -56 -24 l-66 0 25 20 c21 16 206 368
222 423 9 30 20 19 55 -61z m611 38 c-6 -11 -10 -104 -9 -215 0 -108 -1 -199
-4 -201 -4 -4 -48 47 -144 166 -82 102 -127 157 -134 164 -5 6 -8 -54 -8 -145
1 -125 4 -157 16 -171 15 -17 13 -18 -37 -18 -41 0 -50 3 -42 13 13 17 15 382
2 407 -10 19 -7 20 37 20 l48 0 58 -78 c31 -42 80 -102 107 -132 l49 -55 1
122 c0 71 -4 124 -10 128 -22 13 -8 20 35 17 40 -4 44 -6 35 -22z m423 -18
c145 -79 136 -294 -16 -375 -36 -18 -61 -22 -182 -25 -114 -3 -138 -1 -127 9
15 16 17 385 2 409 -8 13 4 16 83 20 114 6 178 -4 240 -38z m-2437 -934 c153
-56 233 -182 221 -346 -19 -256 -299 -407 -542 -293 -83 39 -129 82 -165 154
-39 81 -47 154 -26 237 55 217 289 330 512 248z m-746 -4 c86 -39 125 -115
101 -195 -17 -56 -57 -96 -123 -122 l-57 -23 42 -77 c79 -144 156 -212 256
-224 59 -7 59 -18 -2 -27 -51 -8 -136 8 -191 36 -63 32 -144 116 -199 206 -47
76 -52 82 -84 82 l-33 0 0 -135 c0 -122 2 -137 20 -155 11 -11 20 -22 20 -25
0 -3 -43 -5 -95 -5 -86 0 -113 8 -85 25 6 4 10 120 10 314 0 262 -2 310 -15
321 -34 28 -12 32 188 28 179 -3 207 -6 247 -24z m1515 8 c28 -8 30 -11 30
-60 -1 -28 -3 -54 -7 -57 -3 -3 -22 5 -43 19 -47 32 -96 46 -163 46 -57 0
-106 -19 -116 -45 -11 -31 -6 -72 12 -88 18 -16 75 -40 127 -53 40 -10 37 -9
65 -18 103 -32 154 -76 169 -146 22 -103 -18 -184 -115 -233 -60 -30 -110 -40
-190 -38 -61 2 -73 3 -129 16 -75 18 -83 25 -87 85 -2 30 -2 63 0 73 5 20 22
23 22 4 0 -19 37 -51 91 -80 37 -19 64 -25 126 -26 127 -3 173 25 173 107 0
81 -14 91 -204 147 -68 20 -97 35 -129 64 -37 35 -41 43 -45 98 -4 52 -1 66
22 101 47 74 127 103 266 97 52 -2 109 -8 125 -13z m672 8 c-1 -3 -8 -21 -16
-40 l-13 -35 -149 3 -149 4 0 -96 0 -95 95 4 c52 2 99 7 105 10 5 3 1 -13 -9
-37 l-18 -43 -87 2 -86 3 0 -143 0 -143 96 -2 c118 -3 210 11 246 38 15 11 30
20 32 20 3 0 -10 -28 -29 -62 l-34 -62 -230 -2 -230 -2 15 23 c13 19 14 70 12
331 -2 235 -6 308 -15 312 -44 14 15 19 227 18 132 -1 239 -3 237 -6z m547
-10 l48 -13 -5 -50 c-4 -27 -8 -52 -11 -54 -2 -2 -20 7 -41 21 -46 32 -95 46
-158 46 -54 0 -114 -22 -123 -44 -29 -76 4 -108 152 -147 89 -23 160 -57 192
-92 28 -30 44 -124 30 -175 -13 -48 -70 -106 -131 -133 -44 -20 -68 -24 -162
-24 -81 0 -125 5 -167 19 l-58 19 -1 58 c-1 33 -2 64 -3 71 -1 6 5 13 12 16 6
2 12 -3 12 -10 0 -19 46 -61 90 -83 38 -20 158 -31 212 -21 18 3 46 17 61 31
22 21 27 34 27 73 0 63 -30 96 -108 118 -190 52 -231 74 -262 140 -19 42 -20
52 -10 93 20 80 72 128 165 152 40 11 178 4 239 -11z m-2638 -1470 c87 -199
107 -241 124 -250 10 -6 -5 -9 -47 -10 -56 0 -61 2 -56 20 3 11 -5 44 -18 75
l-23 55 -60 0 -61 0 -24 -56 c-20 -46 -22 -60 -13 -75 11 -18 9 -19 -45 -19
l-56 0 20 23 c22 23 183 339 183 358 0 33 28 -11 76 -121z m759 66 c12 -28 37
-82 55 -121 18 -38 41 -90 52 -115 11 -25 29 -55 40 -67 l21 -23 -66 0 c-62 0
-66 1 -56 18 8 13 5 30 -15 75 l-25 57 -59 0 -60 0 -22 -56 c-19 -46 -21 -60
-12 -75 11 -18 8 -19 -45 -20 -32 -1 -69 0 -83 1 -48 3 -131 77 -162 144 -7
17 -19 26 -33 26 -21 0 -23 -4 -23 -75 0 -60 3 -77 16 -85 13 -7 1 -9 -41 -10
-52 0 -57 2 -49 18 10 17 7 299 -3 340 -5 21 -3 22 77 22 116 0 154 -9 188
-40 38 -36 40 -77 4 -119 -14 -17 -31 -31 -37 -31 -7 0 -18 -4 -25 -9 -26 -16
81 -171 117 -171 19 0 54 56 125 197 42 84 76 160 76 169 0 27 21 3 45 -50z
m2116 -125 c40 -90 82 -172 93 -182 19 -19 19 -19 -48 -19 -58 0 -67 2 -57 14
9 11 7 27 -13 73 l-24 58 -56 3 -56 3 -27 -56 c-23 -47 -25 -59 -15 -75 12
-19 9 -20 -44 -20 l-56 0 24 28 c21 26 159 302 173 346 10 33 28 3 106 -173z
m418 12 c42 -94 85 -181 95 -192 l19 -21 -62 0 c-58 0 -62 1 -56 20 4 12 -4
42 -19 75 l-25 55 -56 0 -56 0 -25 -57 c-20 -45 -23 -62 -15 -75 10 -16 6 -18
-45 -18 l-56 0 24 28 c12 16 59 103 103 195 44 91 84 165 89 163 5 -1 43 -79
85 -173z m-3629 152 c15 -9 12 -65 -2 -65 -7 0 -22 7 -32 15 -30 23 -123 20
-135 -3 -15 -29 11 -58 66 -71 100 -25 143 -63 143 -123 0 -34 -35 -85 -72
-104 -39 -20 -137 -23 -190 -5 -35 12 -38 15 -38 52 0 42 9 49 31 23 22 -26
66 -44 111 -44 56 0 88 22 88 60 0 34 -21 48 -112 74 -67 19 -98 52 -98 103 0
39 42 88 83 97 27 6 144 -1 157 -9z m1375 5 c19 0 20 -5 17 -75 l-4 -75 87 0
87 0 -3 78 -4 77 42 0 c38 0 42 -2 35 -20 -11 -31 -3 -326 9 -342 9 -11 0 -13
-50 -13 -57 0 -61 1 -47 16 12 11 16 36 16 90 l0 74 -85 0 -85 0 0 -78 c0 -47
5 -83 12 -90 9 -9 -1 -12 -46 -12 -50 0 -57 2 -47 14 9 11 11 65 9 191 -3 172
-3 176 17 171 11 -3 29 -6 40 -6z m649 -13 c-3 -10 -6 -94 -7 -187 l-2 -169
-30 -31 c-28 -30 -74 -60 -91 -60 -4 0 5 14 22 31 l29 30 2 186 c2 118 -1 191
-8 199 -11 14 3 19 58 19 27 0 32 -3 27 -18z m526 13 c5 0 30 -43 57 -95 26
-52 50 -95 53 -95 3 0 28 44 55 98 l50 97 42 3 42 3 -5 -33 c-3 -18 -1 -98 5
-178 9 -117 14 -147 28 -157 14 -11 6 -13 -51 -13 -61 0 -67 2 -55 16 13 16
14 63 3 193 l-7 74 -56 -109 c-31 -60 -60 -108 -66 -108 -5 1 -34 50 -64 108
-29 59 -55 105 -57 103 -2 -2 -6 -44 -9 -93 -3 -49 -8 -103 -10 -121 -4 -21 0
-36 10 -47 15 -15 12 -16 -31 -16 -37 0 -44 3 -36 13 6 7 13 46 16 87 3 41 8
112 12 157 5 59 3 87 -5 97 -10 12 -7 15 16 19 15 2 34 2 41 0 8 -1 17 -3 22
-3z m1463 -1 c31 -8 37 -14 37 -38 0 -37 -10 -44 -32 -24 -26 24 -129 31 -147
10 -25 -32 -4 -56 70 -78 39 -12 83 -32 100 -46 25 -21 29 -32 29 -73 0 -40
-5 -53 -30 -78 -38 -38 -110 -55 -177 -43 -78 15 -83 19 -83 62 0 38 13 52 23
26 17 -44 151 -63 187 -27 44 44 18 79 -84 110 -83 26 -106 47 -106 98 0 89
95 134 213 101z m-1835 -323 c5 -23 -16 -46 -42 -46 -46 0 -62 48 -24 74 19
13 25 14 43 2 11 -7 21 -21 23 -30z m-1402 -240 c26 -22 27 -25 14 -55 -14
-35 -37 -51 -72 -51 -67 0 -65 98 2 123 25 9 28 8 56 -17z m974 5 c0 -4 -13
-6 -29 -3 -44 6 -48 -16 -7 -33 38 -16 47 -43 22 -64 -20 -16 -78 -10 -84 9
-4 13 -3 13 11 2 21 -18 61 -12 65 9 2 11 -8 20 -27 27 -36 13 -40 35 -10 55
19 14 59 12 59 -2z m563 1 c-21 -3 -23 -9 -23 -58 0 -30 -4 -54 -10 -54 -5 0
-10 25 -10 55 0 49 -2 55 -21 55 -11 0 -18 3 -15 8 2 4 26 5 53 3 26 -3 38 -7
26 -9z m837 -3 c0 -5 -11 -7 -25 -3 -32 8 -55 -11 -55 -45 0 -33 17 -51 48
-51 21 0 24 4 20 25 -4 17 -1 25 8 25 19 0 18 -46 -2 -54 -47 -18 -94 8 -94
54 0 27 21 53 50 62 20 6 50 -2 50 -13z m774 0 c31 -25 34 -61 6 -89 -24 -24
-67 -26 -92 -3 -31 28 -17 86 25 103 31 12 31 12 61 -11z m-4124 -19 c5 0 11
8 13 18 4 13 5 11 6 -5 0 -13 6 -23 11 -23 6 0 10 -4 10 -10 0 -5 -3 -9 -7 -9
-22 4 -25 -3 -7 -16 19 -14 18 -14 -3 -15 -15 0 -23 -6 -24 -17 -1 -17 -2 -17
-6 0 -2 9 -8 17 -13 17 -5 0 -11 -8 -13 -17 -4 -14 -5 -12 -6 5 0 12 -5 22
-11 22 -5 0 -10 5 -10 10 0 6 8 10 17 10 15 0 14 2 -3 15 -17 13 -18 14 -1 15
10 0 21 8 25 18 6 16 7 16 10 0 2 -10 7 -18 12 -18z m100 -30 c0 -41 -4 -60
-12 -60 -9 0 -12 17 -11 57 2 70 1 63 13 63 6 0 10 -27 10 -60z m183 23 l21
-37 9 37 c14 56 26 44 15 -15 -5 -29 -10 -57 -11 -62 -2 -5 -17 13 -34 39
l-31 48 -7 -46 c-4 -26 -11 -47 -16 -47 -5 0 -7 10 -5 23 3 12 8 39 11 60 7
47 20 47 48 0z m150 30 c-35 -5 -55 -33 -23 -33 11 0 20 -4 20 -10 0 -5 -9
-10 -20 -10 -11 0 -20 -4 -20 -9 0 -5 -3 -17 -7 -26 -5 -15 -1 -17 30 -13 21
2 37 0 37 -4 0 -4 -20 -8 -45 -8 -42 0 -45 2 -41 23 3 12 8 39 11 60 6 36 7
37 48 35 35 -1 37 -2 10 -5z m87 -17 c0 -13 3 -32 7 -41 5 -14 9 -11 24 16
l17 34 9 -34 9 -33 19 41 c11 22 23 41 28 41 11 0 9 -7 -25 -67 l-32 -57 -11
28 -11 27 -13 -27 c-15 -34 -20 -28 -36 41 -11 47 -11 55 1 55 8 0 14 -10 14
-24z m261 -8 l15 -31 23 31 c12 18 27 32 32 32 6 0 -3 -17 -20 -37 -17 -21
-31 -48 -31 -60 0 -13 -6 -23 -14 -23 -9 0 -12 8 -8 25 2 14 -4 39 -17 60 -14
24 -16 35 -7 35 7 0 19 -14 27 -32z m346 15 c2 -6 -6 -20 -18 -32 -21 -19 -21
-21 -5 -46 9 -14 12 -25 6 -25 -6 0 -19 13 -28 30 -22 38 -32 38 -32 0 0 -18
-5 -30 -13 -30 -11 0 -12 12 -4 61 l10 60 40 -3 c22 -2 42 -8 44 -15z m65 -15
l-4 -33 27 33 c15 17 31 32 37 32 7 0 1 -11 -12 -25 l-23 -24 21 -36 c15 -25
18 -35 8 -35 -7 0 -18 11 -24 25 -6 14 -16 25 -22 25 -5 0 -12 -11 -16 -25 -3
-14 -10 -25 -16 -25 -8 0 -6 33 8 98 7 34 21 26 16 -10z m268 23 c-21 -6 -26
-15 -32 -55 -4 -26 -9 -51 -12 -54 -13 -12 -15 6 -7 56 7 47 6 51 -13 55 -12
2 4 4 34 5 37 0 47 -2 30 -7z m67 -51 c-5 -33 -14 -60 -20 -60 -6 0 -7 15 -3
38 3 20 6 47 6 60 0 12 6 22 13 22 11 0 12 -12 4 -60z m92 29 c9 -26 13 -30
26 -19 8 6 17 20 20 31 4 10 13 19 22 19 12 0 14 -7 9 -31 -3 -17 -6 -44 -6
-60 0 -16 -5 -29 -11 -29 -8 0 -10 16 -6 47 5 50 3 49 -34 -7 -7 -10 -12 -11
-15 -4 -3 6 -11 19 -18 30 -12 16 -14 14 -21 -24 -4 -23 -11 -42 -17 -42 -6 0
-7 8 -4 17 4 9 10 36 13 60 7 51 26 56 42 12z m184 24 c-35 -5 -55 -33 -23
-33 11 0 20 -4 20 -10 0 -5 -9 -10 -20 -10 -15 0 -20 -7 -20 -26 0 -23 3 -26
30 -22 17 3 30 1 30 -4 0 -4 -20 -8 -45 -8 -42 0 -45 2 -41 23 3 12 8 39 11
60 6 36 7 37 48 35 35 -1 37 -2 10 -5z m333 -23 c0 -14 3 -31 8 -38 4 -7 4
-21 1 -32 -5 -15 -15 -20 -43 -20 l-37 0 0 60 0 61 35 -3 c30 -3 35 -7 36 -28z
m107 23 c-32 -4 -33 -5 -33 -55 l0 -51 35 6 c21 3 33 2 30 -4 -4 -5 -24 -9
-46 -9 l-39 0 0 60 0 60 43 -2 c36 -1 38 -2 10 -5z m147 -1 c0 -5 -13 -7 -30
-4 -42 6 -42 -26 0 -34 33 -7 48 -37 30 -59 -14 -17 -58 -19 -80 -4 -11 7 -5
8 21 4 26 -5 39 -2 49 9 7 9 11 18 9 19 -2 1 -21 10 -42 20 -33 15 -36 19 -27
37 11 20 70 30 70 12z m250 0 c0 -5 -13 -7 -29 -4 -44 6 -48 -16 -6 -34 41
-17 53 -37 34 -60 -16 -19 -80 -15 -87 6 -4 13 -3 13 11 2 21 -18 61 -12 65
10 2 11 -6 18 -28 23 -57 13 -54 65 5 65 19 0 35 -4 35 -8z m100 -1 c-37 -6
-53 -31 -20 -31 11 0 20 -4 20 -10 0 -5 -8 -10 -18 -10 -13 0 -18 -7 -17 -22
2 -19 8 -23 33 -23 18 0 32 -3 32 -7 0 -5 -19 -8 -42 -8 l-43 0 0 60 0 60 45
-1 c44 -2 44 -2 10 -8z m90 -47 l0 -57 35 6 c21 3 33 2 30 -4 -4 -5 -24 -9
-46 -9 l-39 0 0 60 c0 33 4 60 10 60 6 0 10 -25 10 -56z m120 0 l0 -57 35 6
c21 3 33 2 30 -4 -4 -5 -24 -9 -46 -9 l-39 0 0 60 c0 33 4 60 10 60 6 0 10
-25 10 -56z m120 -4 c0 -33 -4 -60 -10 -60 -6 0 -10 27 -10 60 0 33 4 60 10
60 6 0 10 -27 10 -60z m97 23 l34 -38 -4 38 c-1 20 1 37 5 37 4 0 8 -28 8 -62
l-1 -63 -20 27 c-11 14 -28 37 -39 50 l-19 23 -1 -47 c0 -27 -3 -48 -7 -48 -5
0 -8 27 -8 60 0 33 4 60 9 60 5 0 24 -17 43 -37z m383 10 c38 -82 41 -93 26
-93 -8 0 -17 11 -20 25 -4 16 -13 25 -26 25 -12 0 -25 -10 -32 -25 -6 -14 -15
-25 -20 -25 -6 0 -8 3 -6 8 2 4 15 31 29 59 13 29 27 53 30 53 3 0 12 -12 19
-27z m92 -25 c3 -49 5 -53 28 -53 23 0 25 4 28 53 4 63 22 70 22 8 0 -50 -19
-76 -54 -76 -34 0 -46 19 -46 72 0 65 18 61 22 -4z m191 45 c-21 -4 -23 -10
-23 -59 0 -30 -4 -54 -10 -54 -5 0 -10 24 -10 54 0 49 -2 55 -22 59 -13 2 2 4
32 4 30 0 45 -2 33 -4z m77 -18 c0 -20 5 -25 25 -25 20 0 25 5 25 25 0 14 5
25 10 25 6 0 10 -27 10 -60 0 -33 -4 -60 -10 -60 -5 0 -10 14 -10 30 0 25 -4
30 -25 30 -21 0 -25 -5 -25 -30 0 -16 -4 -30 -10 -30 -6 0 -10 27 -10 60 0 33
4 60 10 60 6 0 10 -11 10 -25z m358 2 c2 -10 -4 -24 -13 -31 -15 -11 -15 -14
5 -39 29 -37 8 -34 -23 3 -14 17 -29 30 -32 30 -4 0 -5 -13 -3 -30 3 -20 0
-30 -9 -30 -9 0 -13 17 -13 61 l0 60 42 -3 c32 -2 44 -8 46 -21z"/>
<path d="M658 6445 l-38 -76 65 2 c76 3 77 5 37 92 l-27 58 -37 -76z"/>
<path d="M2284 6606 c-17 -7 -45 -32 -63 -55 -90 -113 -77 -310 24 -387 38
-29 128 -56 162 -49 13 3 34 7 48 10 38 8 96 65 121 120 35 75 34 182 -3 256
-41 80 -94 113 -186 116 -46 2 -83 -2 -103 -11z"/>
<path d="M3620 6514 l0 -101 80 3 c118 5 160 33 160 106 0 66 -67 102 -181 96
l-59 -3 0 -101z"/>
<path d="M1470 5519 c-46 -14 -69 -35 -91 -84 -66 -144 45 -305 182 -264 75
23 128 116 115 202 -19 114 -105 176 -206 146z"/>
<path d="M2028 4556 c-39 -17 -96 -74 -121 -121 -18 -33 -22 -57 -22 -140 0
-88 3 -107 26 -150 72 -142 250 -175 368 -69 54 49 75 92 85 176 22 177 -89
319 -248 317 -33 0 -73 -6 -88 -13z"/>
<path d="M2793 4562 l-32 -3 0 -110 -1 -109 86 0 c138 0 188 34 182 126 -4 65
-33 85 -130 93 -40 3 -87 5 -105 3z"/>
<path d="M2899 3309 c-8 -13 -20 -36 -27 -51 l-12 -28 50 0 c28 0 50 1 50 3 0
2 -10 25 -23 51 l-23 48 -15 -23z"/>
<path d="M3770 3231 l0 -181 68 4 c85 5 113 16 147 61 49 63 52 164 7 224 -31
42 -76 62 -152 68 l-70 5 0 -181z"/>
<path d="M1312 2409 c-147 -73 -184 -319 -69 -455 45 -53 109 -77 193 -72 61
3 80 8 116 33 143 100 147 368 7 471 -66 49 -174 59 -247 23z"/>
<path d="M530 2311 l0 -111 68 0 c126 0 189 34 199 106 5 36 1 46 -25 75 l-30
34 -106 3 -106 4 0 -111z"/>
<path d="M818 979 l-17 -39 35 0 c39 0 41 8 16 49 l-17 29 -17 -39z"/>
<path d="M1182 1019 l1 -61 53 4 c60 5 94 28 94 63 0 37 -31 55 -92 55 l-56 0
0 -61z"/>
<path d="M1607 985 c-9 -20 -17 -38 -17 -40 0 -3 18 -5 40 -5 l40 0 -21 40
c-12 22 -22 40 -23 40 -1 0 -10 -16 -19 -35z"/>
<path d="M3667 985 c-10 -21 -16 -39 -13 -42 2 -2 18 -3 35 -1 l30 3 -17 39
-17 38 -18 -37z"/>
<path d="M4087 975 l-17 -35 35 0 c19 0 35 2 35 4 0 13 -23 66 -29 66 -4 0
-15 -16 -24 -35z"/>
<path d="M1282 548 c-15 -15 -16 -74 -1 -83 36 -23 90 36 69 76 -12 21 -50 25
-68 7z"/>
<path d="M4432 548 c-26 -26 -3 -88 33 -88 18 0 45 28 45 46 0 45 -49 71 -78
42z"/>
<path d="M360 510 c0 -5 5 -10 10 -10 6 0 10 5 10 10 0 6 -4 10 -10 10 -5 0
-10 -4 -10 -10z"/>
<path d="M1440 540 c0 -23 22 -27 39 -7 13 16 5 27 -21 27 -11 0 -18 -7 -18
-20z"/>
<path d="M2462 543 c4 -22 43 -25 43 -3 0 8 -11 16 -23 18 -19 3 -23 0 -20
-15z"/>
<path d="M2466 494 c-8 -21 1 -34 24 -34 25 0 35 17 20 35 -16 20 -36 19 -44
-1z"/>
<path d="M3900 530 c0 -5 5 -10 11 -10 5 0 7 5 4 10 -3 6 -8 10 -11 10 -2 0
-4 -4 -4 -10z"/>
<path d="M4580 539 c0 -15 5 -20 22 -17 34 5 37 38 4 38 -20 0 -26 -5 -26 -21z"/>
</g>
</svg>
